<svg width="28" height="28" viewBox="0 0 28 28" fill="none" xmlns="http://www.w3.org/2000/svg">
<g clip-path="url(#clip0_313_552)">
<path d="M25.23 8.33345C23.3617 8.32785 21.842 9.83845 21.8371 11.7068C21.8315 13.5751 20.3125 15.0857 18.4442 15.0801C16.5759 15.0745 15.0562 16.5851 15.0513 18.4534C15.0457 20.3217 13.5267 21.8323 11.6584 21.8267C9.79009 21.8211 8.27039 23.3317 8.26549 25.2C8.26199 26.4488 6.75069 27.069 5.87009 26.1842L1.36279 21.6503L1.37259 18.2672C1.37819 16.3989 2.89719 14.8883 4.76549 14.8939C6.63379 14.8995 8.15349 13.3889 8.15839 11.5206C8.16399 9.65225 9.68299 8.14165 11.5513 8.14725C13.4196 8.15285 14.9393 6.64225 14.9442 4.77395C14.9498 2.90565 16.4688 1.39505 18.3371 1.40065L21.7202 1.41045L26.2275 5.94435C27.1074 6.82985 26.4788 8.33765 25.23 8.33345Z" fill="#FA878F"/>
<path d="M23.114 5.41094C20.8117 5.40465 18.9336 7.27154 18.9273 9.57314C18.9238 10.9584 17.7128 12.1617 16.3275 12.1575C14.0259 12.1512 12.1478 14.0181 12.1408 16.3197C12.1366 17.7491 10.9704 18.9083 9.54099 18.9041C7.23939 18.8971 5.36199 20.7654 5.35429 23.0663C5.35289 23.5703 5.10649 24.4292 4.77539 25.0837L5.92269 26.238C6.60939 25.1586 6.93489 23.7075 6.93629 23.0705C6.94049 21.6418 8.10669 20.4826 9.53609 20.4861C11.8384 20.4924 13.7165 18.6255 13.7228 16.3239C13.727 14.8945 14.8939 13.7367 16.3226 13.7395C17.4384 13.743 18.487 13.3118 19.278 12.525C20.069 11.7382 20.5058 10.6917 20.5093 9.57734C20.5149 8.14935 21.6811 6.98944 23.1091 6.99294C23.8854 6.99504 25.2518 6.62474 26.1744 5.88974L25.0502 4.75854C24.4944 5.12814 23.6187 5.41305 23.114 5.41094Z" fill="#EF4452"/>
<path d="M6.89214 17.827C9.19444 17.8333 11.0725 15.9664 11.0788 13.6648C11.0823 12.2795 12.2933 11.0762 13.6786 11.0804C15.9802 11.086 17.859 9.22046 17.8653 6.91816C17.8688 5.53286 19.0798 4.32886 20.4651 4.33376C21.2295 4.33586 22.7058 4.08246 23.6711 3.37266L22.5357 2.23096C21.9981 2.52986 21.1217 2.75316 20.4693 2.75176C19.3535 2.74826 18.3049 3.17946 17.5139 3.96626C16.7229 4.75236 16.2854 5.79886 16.2826 6.91466C16.2784 8.34406 15.1115 9.50186 13.6828 9.49906C12.567 9.49556 11.5184 9.92676 10.7274 10.7136C9.93644 11.4997 9.49964 12.5469 9.49614 13.6613C9.49054 15.0893 8.32434 16.2492 6.89634 16.2457C5.78194 16.2422 4.73194 16.6734 3.94094 17.4602C3.14994 18.2463 2.71314 19.2935 2.71174 20.3603C2.65784 21.2087 2.34634 21.8443 1.98584 22.279L3.09954 23.399C3.72184 22.6948 4.21324 21.6861 4.29234 20.4121C4.29584 19.0268 5.50684 17.8228 6.89214 17.8277V17.827Z" fill="#EF4452"/>
</g>
<defs>
<clipPath id="clip0_313_552">
<rect width="28" height="28" fill="white"/>
</clipPath>
</defs>
</svg>
