<svg width="30" height="30" viewBox="0 0 30 30" fill="none" xmlns="http://www.w3.org/2000/svg">
<g clip-path="url(#clip0_222_6602)">
<path d="M13.3583 21.7576H16.6425C17.376 21.7576 17.9708 22.3531 17.9708 23.0858V27.6983H12.0293V23.0858C12.0293 22.3523 12.6248 21.7576 13.3575 21.7576H13.3583Z" fill="#6B7683"/>
<path d="M26.3372 10.9695L15.778 2.5732C15.3227 2.21095 14.6777 2.21095 14.2217 2.5732L3.66398 10.9695C3.06773 11.4435 2.71973 12.1642 2.71973 12.9262V24.6989C2.71973 26.3557 4.06298 27.699 5.71973 27.699H12.5005V23.0077C12.5005 22.3177 13.06 21.7575 13.7507 21.7575H16.2505C16.9405 21.7575 17.5007 22.317 17.5007 23.0077V27.699H24.2807C25.9375 27.699 27.2807 26.3557 27.2807 24.6989V12.9262C27.2807 12.1642 26.9342 11.4435 26.3372 10.9695Z" fill="#D0D5DA"/>
<path d="M26.3363 10.9687L15.7778 2.5732C15.3225 2.21095 14.6775 2.21095 14.2222 2.5732L3.663 10.9695C3.06675 11.4435 2.71875 12.1642 2.71875 12.9262V16.7205L14.2215 7.57345C14.6768 7.2112 15.3218 7.2112 15.7778 7.57345L27.2798 16.7205V12.9262C27.2798 12.1642 26.9317 11.4435 26.3355 10.9687H26.3363Z" fill="#8B2842"/>
</g>
<defs>
<clipPath id="clip0_222_6602">
<rect width="30" height="30" fill="white"/>
</clipPath>
</defs>
</svg>
