<svg width="32" height="32" viewBox="0 0 32 32" fill="none" xmlns="http://www.w3.org/2000/svg">
<path d="M16 29.6447C21.7195 29.6447 26.356 26.9592 26.356 23.6463C26.356 20.3335 21.7195 17.6479 16 17.6479C10.2806 17.6479 5.64404 20.3335 5.64404 23.6463C5.64404 26.9592 10.2806 29.6447 16 29.6447Z" fill="#BABABA"/>
<path d="M16 27.7759C24.1707 27.7759 30.7944 23.9392 30.7944 19.2063C30.7944 14.4735 24.1707 10.6367 16 10.6367C7.82925 10.6367 1.20557 14.4735 1.20557 19.2063C1.20557 23.9392 7.82925 27.7759 16 27.7759Z" fill="#D9D9D9"/>
<path d="M16 26.2984C22.1649 26.2984 27.1624 23.4036 27.1624 19.8328C27.1624 16.2619 22.1649 13.3672 16 13.3672C9.83522 13.3672 4.83765 16.2619 4.83765 19.8328C4.83765 23.4036 9.83522 26.2984 16 26.2984Z" fill="#EC4F00"/>
<path d="M21.2047 23.2746C21.0279 23.2746 20.8671 23.157 20.8191 22.9786C19.9983 19.9162 16.8375 18.0882 13.7759 18.9122C13.5639 18.9658 13.3431 18.8426 13.2863 18.629C13.2295 18.4154 13.3559 18.197 13.5695 18.1394C17.0567 17.2082 20.6575 19.2834 21.5927 22.7714C21.6495 22.9858 21.5231 23.2042 21.3095 23.2618C21.2751 23.2706 21.2399 23.2754 21.2055 23.2754L21.2047 23.2746Z" fill="#FFAD00"/>
<path d="M20.0167 23.5929C19.8399 23.5929 19.6783 23.4753 19.6311 23.2969C19.3191 22.1321 18.5703 21.1577 17.5239 20.5529C16.4767 19.9489 15.2583 19.7857 14.0943 20.1001C13.8823 20.1537 13.6615 20.0297 13.6047 19.8169C13.5479 19.6025 13.6743 19.3841 13.8879 19.3265C15.2583 18.9617 16.6919 19.1481 17.9239 19.8601C19.1559 20.5721 20.0367 21.7185 20.4039 23.0889C20.4607 23.3033 20.3343 23.5217 20.1207 23.5793C20.0863 23.5881 20.0511 23.5929 20.0167 23.5929Z" fill="#FFAD00"/>
<path d="M18.8286 23.9113C18.6518 23.9113 18.4902 23.7937 18.443 23.6145C17.9742 21.8633 16.1694 20.8161 14.4126 21.2889C14.199 21.3409 13.9798 21.2193 13.923 21.0057C13.8662 20.7921 13.9926 20.5737 14.2062 20.5161C16.3854 19.9345 18.6326 21.2297 19.2158 23.4089C19.2726 23.6225 19.1462 23.8409 18.9326 23.8985C18.8982 23.9073 18.863 23.9113 18.8286 23.9113Z" fill="#FFAD00"/>
<path d="M8.50328 19.3001C8.43528 19.3001 8.36648 19.2833 8.30328 19.2465C8.11208 19.1361 8.04648 18.8921 8.15688 18.7001C9.81928 15.8217 13.5121 14.8305 16.3913 16.4937C16.5825 16.6041 16.6481 16.8481 16.5377 17.0401C16.4273 17.2321 16.1817 17.2961 15.9913 17.1865C13.4945 15.7465 10.2905 16.6049 8.84968 19.1009C8.77528 19.2289 8.64088 19.3009 8.50248 19.3009L8.50328 19.3001Z" fill="#FFAD00"/>
<path d="M9.47838 19.8634C9.41038 19.8634 9.34158 19.8466 9.27838 19.8098C9.08718 19.6994 9.02158 19.4554 9.13198 19.2634C10.4848 16.9226 13.4896 16.117 15.8296 17.469C16.0208 17.5794 16.0864 17.8234 15.976 18.0154C15.8648 18.2058 15.62 18.2722 15.4296 18.1618C13.4712 17.0314 10.9576 17.705 9.82558 19.6642C9.75118 19.7922 9.61678 19.8634 9.47838 19.8634Z" fill="#FFAD00"/>
<path d="M10.6841 20.077C10.6001 20.077 10.5153 20.0506 10.4433 19.9962C10.2665 19.8626 10.2321 19.6122 10.3649 19.4354C11.5105 17.9186 13.6185 17.4922 15.2657 18.4442C15.4569 18.5546 15.5225 18.7986 15.4121 18.9906C15.3009 19.181 15.0561 19.2466 14.8657 19.137C13.5657 18.3874 11.9057 18.7234 11.0033 19.9194C10.9249 20.0234 10.8049 20.077 10.6841 20.077Z" fill="#FFAD00"/>
<path d="M24.5903 20.692C24.4519 20.692 24.3175 20.62 24.2431 20.492C23.4751 19.1616 22.2351 18.2096 20.7511 17.812C19.2671 17.4144 17.7183 17.6192 16.3871 18.3864C16.1959 18.4968 15.9511 18.4312 15.8407 18.24C15.7303 18.0488 15.7959 17.804 15.9871 17.6936C17.5031 16.8192 19.2671 16.5856 20.9575 17.0392C22.6479 17.492 24.0599 18.576 24.9351 20.0912C25.0455 20.2824 24.9799 20.5272 24.7887 20.6376C24.7255 20.6744 24.6567 20.6912 24.5887 20.6912L24.5903 20.692Z" fill="#FFAD00"/>
<path d="M23.5248 21.3072C23.3864 21.3072 23.252 21.2352 23.1776 21.1072C22.5752 20.0632 21.6 19.3168 20.432 19.0032C19.264 18.6904 18.0464 18.8504 17.0024 19.4528C16.8104 19.5632 16.5664 19.4984 16.456 19.3064C16.3456 19.1152 16.4112 18.8704 16.6024 18.76C17.8304 18.0496 19.264 17.86 20.6392 18.2304C22.0128 18.5984 23.1608 19.4784 23.8704 20.7072C23.9808 20.8984 23.9152 21.1432 23.724 21.2536C23.6608 21.2904 23.5928 21.3072 23.5248 21.3072Z" fill="#FFAD00"/>
<path d="M22.4598 21.9225C22.3214 21.9225 22.187 21.8505 22.1126 21.7225C21.527 20.7065 20.4342 20.0777 19.259 20.0777C19.2542 20.0777 19.2502 20.0849 19.243 20.0777C19.023 20.0777 18.8438 19.8993 18.843 19.6793C18.843 19.4529 19.031 19.2737 19.259 19.2777C20.7198 19.2777 22.0774 20.0601 22.8062 21.3225C22.9166 21.5137 22.851 21.7585 22.6598 21.8689C22.5966 21.9057 22.5278 21.9225 22.4598 21.9225Z" fill="#FFAD00"/>
<path d="M15.812 23.1529C15.6736 23.1529 15.5392 23.0809 15.4648 22.9529C14.6968 21.6225 13.4568 20.6705 11.9728 20.2729C10.4888 19.8745 8.9392 20.0801 7.6088 20.8473C7.4176 20.9577 7.1728 20.8921 7.0624 20.7009C6.952 20.5097 7.0176 20.2649 7.2088 20.1545C8.724 19.2793 10.4888 19.0465 12.1792 19.5001C13.8696 19.9529 15.2816 21.0369 16.1568 22.5521C16.2672 22.7433 16.2016 22.9881 16.0104 23.0985C15.9472 23.1353 15.8784 23.1521 15.8104 23.1521L15.812 23.1529Z" fill="#FFAD00"/>
<path d="M14.7472 23.7682C14.6088 23.7682 14.4744 23.6962 14.4 23.5682C13.7976 22.5242 12.8224 21.7778 11.6544 21.4642C10.4864 21.1506 9.26876 21.3114 8.22476 21.9138C8.03356 22.0242 7.78876 21.9586 7.67836 21.7674C7.56796 21.5762 7.63356 21.3314 7.82476 21.221C9.05276 20.5098 10.4864 20.3218 11.8616 20.6914C13.2352 21.0594 14.3832 21.9394 15.0928 23.1682C15.2032 23.3594 15.1376 23.6042 14.9464 23.7146C14.8832 23.7514 14.8152 23.7682 14.7472 23.7682Z" fill="#FFAD00"/>
<path d="M12.3472 23.0434C12.2792 23.0434 12.2096 23.0266 12.1464 22.9898C11.1248 22.3946 9.8584 22.3914 8.84 22.9786C8.6488 23.0898 8.404 23.0234 8.2936 22.8322C8.1832 22.641 8.2488 22.3962 8.44 22.2858C9.7064 21.5538 11.2808 21.5586 12.5488 22.297C12.74 22.409 12.8048 22.653 12.6936 22.845C12.6192 22.9722 12.4856 23.0434 12.3472 23.0434Z" fill="#FFAD00"/>
<path d="M13.7544 23.5337C13.6864 23.6505 13.7344 23.7961 13.8584 23.8481C14.2064 23.9953 14.9168 24.2265 15.5776 24.0073C16.2384 23.7881 16.6704 23.1785 16.8608 22.8521C16.9288 22.7353 16.8808 22.5897 16.7568 22.5377C16.4088 22.3905 15.6984 22.1593 15.0376 22.3785C14.3768 22.5977 13.9448 23.2073 13.7544 23.5337Z" fill="#036D50"/>
<path d="M24.7569 21.8592C24.8345 21.9696 24.7977 22.1184 24.6785 22.1816C24.3465 22.3552 23.6665 22.6384 22.9985 22.476C22.3305 22.3136 21.8569 21.7496 21.6417 21.4424C21.5641 21.332 21.6009 21.1832 21.7201 21.12C22.0521 20.9464 22.7321 20.6632 23.4001 20.8256C24.0681 20.988 24.5417 21.552 24.7569 21.8592Z" fill="#036D50"/>
<path d="M17.7465 7.11604L29.5969 4.40884C29.9785 4.31604 30.2089 3.92804 30.1073 3.54884L29.9449 2.94164C29.8433 2.56244 29.4497 2.34164 29.0729 2.45204L17.4561 6.03204L17.7465 7.11604Z" fill="#3D3D3D"/>
<path d="M15.4719 7.02718C14.9775 7.46718 14.3847 7.78238 13.7431 7.94558L11.1815 8.59758C10.9735 8.65038 10.8487 8.86318 10.9039 9.07118C10.9535 9.25678 11.1335 9.37758 11.3239 9.35358L15.5647 8.82078C16.1511 8.72398 16.4119 8.27518 16.6031 8.00878C16.7943 7.74238 17.0447 7.27278 17.4759 7.16798L17.7455 7.11598L17.4551 6.03198L17.1007 6.12718C16.5191 6.28318 15.9823 6.57278 15.5335 6.97278L15.4719 7.02718Z" fill="#BABABA"/>
<path d="M14.7032 16.6441C14.4824 16.6441 14.3032 16.4649 14.3032 16.2441V7.5665C14.3032 7.3457 14.4824 7.1665 14.7032 7.1665C14.924 7.1665 15.1032 7.3457 15.1032 7.5665V16.2441C15.1032 16.4649 14.924 16.6441 14.7032 16.6441Z" fill="#FFAD00"/>
<path d="M13.5543 16.4929C13.3335 16.4929 13.1543 16.3137 13.1543 16.0929V7.94492C13.1543 7.72412 13.3335 7.54492 13.5543 7.54492C13.7751 7.54492 13.9543 7.72412 13.9543 7.94492V16.0929C13.9543 16.3137 13.7751 16.4929 13.5543 16.4929Z" fill="#FFAD00"/>
<path d="M12.4056 16.4849C12.1848 16.4849 12.0056 16.3057 12.0056 16.0849V8.28574C12.0056 8.06494 12.1848 7.88574 12.4056 7.88574C12.6264 7.88574 12.8056 8.06494 12.8056 8.28574V16.0849C12.8056 16.3057 12.6264 16.4849 12.4056 16.4849Z" fill="#FFAD00"/>
<path d="M19.26 18.1025C19.2808 17.9849 19.264 17.8609 19.2 17.7497C19.1336 17.6345 19.0288 17.5561 18.912 17.5161C18.912 17.3969 18.8736 17.2769 18.7912 17.1785C18.7056 17.0769 18.5888 17.0169 18.4672 16.9985C18.4464 16.8809 18.388 16.7697 18.2896 16.6873C18.1872 16.6017 18.0624 16.5633 17.9392 16.5665C17.8984 16.4545 17.8216 16.3554 17.7104 16.2906C17.5952 16.2242 17.4656 16.2081 17.344 16.2329C17.2848 16.1297 17.192 16.0449 17.0712 16.0009C16.9464 15.9553 16.8152 15.9626 16.7008 16.0074C16.624 15.9162 16.5184 15.849 16.392 15.8266C16.2608 15.8034 16.1336 15.8329 16.028 15.8969C15.9368 15.8201 15.8208 15.7729 15.692 15.7729C15.5592 15.7729 15.4384 15.8241 15.3456 15.9057C15.2424 15.8465 15.12 15.8193 14.9936 15.8417C14.8624 15.8649 14.7528 15.9361 14.676 16.0329C14.564 15.9921 14.4384 15.9873 14.3176 16.0313C14.1928 16.0769 14.0968 16.1657 14.0376 16.2745C13.92 16.2537 13.796 16.2705 13.6848 16.3345C13.5696 16.4009 13.4912 16.5057 13.4512 16.6225C13.332 16.6225 13.212 16.661 13.1136 16.7434C13.0112 16.829 12.952 16.9457 12.9336 17.0673C12.816 17.0881 12.7048 17.1465 12.6224 17.2449C12.5368 17.3473 12.4984 17.4721 12.5016 17.5953C12.3896 17.6361 12.2904 17.713 12.2256 17.8242C12.1592 17.9394 12.1432 18.069 12.1672 18.1906C12.064 18.2506 11.9352 18.3282 11.9352 18.4634C11.9352 18.4665 11.9376 18.4713 11.9384 18.4753H11.9336C11.9336 19.6857 13.628 20.6673 15.7176 20.6673C17.8072 20.6673 19.5016 19.6857 19.5016 18.4753C19.5016 18.2937 19.3672 18.1617 19.2584 18.1025H19.26Z" fill="#CB2C29"/>
</svg>
