<svg width="32" height="32" viewBox="0 0 32 32" fill="none" xmlns="http://www.w3.org/2000/svg">
<g clip-path="url(#clip0_234_552)">
<path d="M2.85107 17.252V21.3704C2.85107 23.6112 4.13027 25.6552 6.14627 26.6352L7.82387 27.4504C10.4903 28.7464 13.6439 28.5304 16.1087 26.8832L27.2871 19.4144C29.1615 18.1616 30.2871 16.056 30.2871 13.8016V9.52563L2.85107 17.252Z" fill="#DFE3E8"/>
<path d="M2.63118 18.1024L9.51918 21.324C10.828 21.936 12.3576 21.8448 13.584 21.08C18.5384 17.068 23.9112 13.784 29.6224 11.0848C31.5112 9.90798 31.2032 8.14798 29.3152 6.74958L23.524 3.49838C21.9872 2.78958 20.2464 2.65758 18.6232 3.13518C14.8144 4.25678 7.72318 7.20478 1.87758 14.512C1.84158 14.5528 1.80718 14.5936 1.77438 14.6344C0.860778 15.776 1.30718 17.4832 2.63118 18.1024Z" fill="#FA5F3C"/>
<path d="M17.2993 17.1104C17.2993 15.5672 16.4545 14.0976 15.4985 12.8856L10.1137 7.06641C9.57845 7.41121 9.03765 7.78081 8.49365 8.17761L13.4465 13.3512C14.5777 14.5384 15.2833 16.0872 15.3465 17.7256C15.3497 17.8136 15.3513 17.9024 15.3513 17.9912V19.6936C15.6289 19.4824 15.9081 19.2744 16.1881 19.0672C16.4801 18.8392 16.7201 18.6624 17.2993 18.2464V17.1104Z" fill="#FAA594"/>
<path d="M22.9663 8.50325L18.1623 3.27686C17.5575 3.46566 16.8855 3.69686 16.1575 3.97926L20.9135 8.96886C22.0447 10.1561 22.7503 11.7049 22.8135 13.3433C22.8167 13.4313 22.8183 13.5201 22.8183 13.6089V14.6857C23.4623 14.3057 24.1119 13.9345 24.7663 13.5721V12.7273C24.7663 11.1841 23.9215 9.71446 22.9655 8.50246L22.9663 8.50325Z" fill="#FAA594"/>
<path d="M2.73755 13.4824C3.50795 14.424 5.33435 16.8744 6.01835 19.6872L8.48075 20.8392C7.85995 18.8568 6.41835 14.9832 3.94155 12.1592C3.53675 12.5816 3.13435 13.0224 2.73755 13.4824Z" fill="#FAA594"/>
</g>
<defs>
<clipPath id="clip0_234_552">
<rect width="32" height="32" fill="white"/>
</clipPath>
</defs>
</svg>
