<svg width="21" height="16" viewBox="0 0 21 16" fill="none" xmlns="http://www.w3.org/2000/svg">
<path d="M0.348224 7.1488C0.125256 7.37457 0 7.68075 0 8C0 8.31925 0.125256 8.62543 0.348224 8.8512L7.07635 15.662C7.30066 15.8813 7.60109 16.0027 7.91293 16C8.22477 15.9972 8.52308 15.8706 8.74359 15.6474C8.9641 15.4241 9.08919 15.1222 9.0919 14.8065C9.09461 14.4908 8.97473 14.1867 8.75808 13.9596L4.06017 9.20396H19.8107C20.1261 9.20396 20.4286 9.07712 20.6516 8.85133C20.8747 8.62554 21 8.31931 21 8C21 7.68069 20.8747 7.37446 20.6516 7.14867C20.4286 6.92288 20.1261 6.79603 19.8107 6.79603H4.06017L8.75808 2.04037C8.97473 1.8133 9.09461 1.50918 9.0919 1.1935C9.08919 0.877827 8.9641 0.575858 8.74359 0.352633C8.52308 0.129408 8.22477 0.00278865 7.91293 4.55131e-05C7.60109 -0.00269762 7.30066 0.118655 7.07635 0.337967L0.348224 7.1488Z" fill="#8B2842"/>
</svg>
