<svg width="20" height="20" viewBox="0 0 20 20" fill="none" xmlns="http://www.w3.org/2000/svg">
<g clip-path="url(#clip0_493_822)">
<path d="M73 -3H-102V23H73V-3Z" stroke="#F24253" stroke-width="2" stroke-miterlimit="10"/>
<path d="M7.1665 17.9768L1.878 16.4603C1.655 16.3963 1.5 16.1793 1.5 15.9318V4.27127C1.5 3.91177 1.8175 3.64977 2.141 3.74277L7.1665 5.18377V17.9768Z" fill="#D0D5DC"/>
<path d="M7.1665 17.9768L12.8335 16.3518V3.55884L7.1665 5.18384V17.9768Z" fill="#E1E4E7"/>
<path d="M17.859 17.7928L12.8335 16.3518V3.55884L18.122 5.07534C18.345 5.13934 18.5 5.35634 18.5 5.60384V17.2638C18.5 17.6233 18.1825 17.8858 17.859 17.7928Z" fill="#D0D5DC"/>
<path d="M13.2039 9.74345C13.6854 9.23445 14.5574 8.31945 15.3299 7.54295C16.8024 6.06295 16.9029 3.53745 15.4124 2.07545C14.6964 1.37345 13.7649 1.02245 12.8334 1.02295C11.9019 1.02295 10.9704 1.37345 10.2549 2.07545C8.7639 3.53745 8.8644 6.06345 10.3374 7.54345C11.1099 8.31995 11.9829 9.23495 12.4654 9.74345C12.6664 9.95545 13.0034 9.95545 13.2039 9.74345Z" fill="#DC5257"/>
<path d="M12.834 5.80004C13.4379 5.80004 13.9275 5.31046 13.9275 4.70654C13.9275 4.10261 13.4379 3.61304 12.834 3.61304C12.2301 3.61304 11.7405 4.10261 11.7405 4.70654C11.7405 5.31046 12.2301 5.80004 12.834 5.80004Z" fill="#FBFBFB"/>
</g>
<defs>
<clipPath id="clip0_493_822">
<rect width="20" height="20" fill="white"/>
</clipPath>
</defs>
</svg>
