<svg width="16" height="16" viewBox="0 0 16 16" fill="none" xmlns="http://www.w3.org/2000/svg">
<path d="M8.00016 9.33333C9.47083 9.33333 10.6668 8.13733 10.6668 6.66667C10.6668 5.196 9.47083 4 8.00016 4C6.5295 4 5.3335 5.196 5.3335 6.66667C5.3335 8.13733 6.5295 9.33333 8.00016 9.33333ZM8.00016 5.33333C8.7355 5.33333 9.3335 5.93133 9.3335 6.66667C9.3335 7.402 8.7355 8 8.00016 8C7.26483 8 6.66683 7.402 6.66683 6.66667C6.66683 5.93133 7.26483 5.33333 8.00016 5.33333Z" fill="#8B8B8B"/>
<path d="M7.61323 14.5419C7.72614 14.6222 7.86129 14.6654 7.9999 14.6654C8.1385 14.6654 8.27365 14.6222 8.38656 14.5419C8.58923 14.3985 13.3526 10.9592 13.3332 6.66585C13.3332 3.72519 10.9406 1.33252 7.9999 1.33252C5.05923 1.33252 2.66656 3.72519 2.66656 6.66252C2.64723 10.9592 7.41056 14.3985 7.61323 14.5419ZM7.9999 2.66585C10.2059 2.66585 11.9999 4.45985 11.9999 6.66919C12.0139 9.62785 9.07456 12.2845 7.9999 13.1559C6.9259 12.2839 3.9859 9.62652 3.9999 6.66585C3.9999 4.45985 5.7939 2.66585 7.9999 2.66585Z" fill="#8B8B8B"/>
</svg>
