<svg width="20" height="20" viewBox="0 0 20 20" fill="none" xmlns="http://www.w3.org/2000/svg">
<path fill-rule="evenodd" clip-rule="evenodd" d="M17.3468 2.65431L3.0436 7.82605L7.80869 10.584L12.0104 6.38119C12.2235 6.1682 12.5125 6.04861 12.8139 6.04871C13.1152 6.04882 13.4041 6.16862 13.6171 6.38176C13.8301 6.5949 13.9497 6.88392 13.9496 7.18524C13.9495 7.48656 13.8297 7.7755 13.6165 7.98849L9.41371 12.1913L12.1739 16.9553L17.3468 2.65431ZM17.7137 0.105355C19.0711 -0.386489 20.3865 0.928881 19.8946 2.28628L13.8948 18.8761C13.4019 20.2369 11.5435 20.4027 10.8177 19.1498L7.1635 12.8365L0.850177 9.18232C-0.402719 8.45648 -0.236877 6.59815 1.12393 6.10517L17.7137 0.105355Z" fill="#8B2842"/>
</svg>
