<svg width="11" height="16" viewBox="0 0 11 16" fill="none" xmlns="http://www.w3.org/2000/svg">
<path d="M11 5.6C11 4.8646 10.8577 4.1364 10.5813 3.45697C10.3049 2.77755 9.89981 2.16021 9.38909 1.6402C8.87836 1.12019 8.27205 0.707701 7.60476 0.426275C6.93747 0.144848 6.22227 0 5.5 0C4.77773 0 4.06253 0.144848 3.39524 0.426275C2.72795 0.707701 2.12163 1.12019 1.61091 1.6402C1.10019 2.16021 0.695063 2.77755 0.418662 3.45697C0.142262 4.1364 -1.07627e-08 4.8646 0 5.6C0 6.7096 0.321357 7.7416 0.868214 8.612H0.861929L5.5 16L10.1381 8.612H10.1326C10.699 7.71328 11.0001 6.66786 11 5.6ZM5.5 8C4.87485 8 4.2753 7.74714 3.83325 7.29706C3.3912 6.84697 3.14286 6.23652 3.14286 5.6C3.14286 4.96348 3.3912 4.35303 3.83325 3.90294C4.2753 3.45286 4.87485 3.2 5.5 3.2C6.12515 3.2 6.7247 3.45286 7.16675 3.90294C7.6088 4.35303 7.85714 4.96348 7.85714 5.6C7.85714 6.23652 7.6088 6.84697 7.16675 7.29706C6.7247 7.74714 6.12515 8 5.5 8Z" fill="#8B2842"/>
</svg>
