<svg width="22" height="50" viewBox="0 0 22 50" fill="none" xmlns="http://www.w3.org/2000/svg">
<path d="M4.88281 41.8398C4.88281 43.5977 6.03125 45.4141 7.64844 46.1055L7.03906 46.9727C5.80273 46.4277 4.81836 45.2734 4.33203 43.8672C3.8457 45.3672 2.85547 46.6445 1.63672 47.2422L0.992188 46.3633C2.57422 45.625 3.74609 43.6445 3.75781 41.8398V40.7266H1.35547V39.8008H7.27344V40.7266H4.88281V41.8398ZM9.71094 38.7461V49.2461H8.59766V38.7461H9.71094ZM19.8945 43.5859V44.4766H16.7188V47.043H20.9961V47.957H11.3867V47.043H15.6172V44.4766H12.582V39.5547H19.8008V40.457H13.6953V43.5859H19.8945Z" fill="#8B8B8B"/>
<path d="M11 16.5C14.0333 16.5 16.5 14.0333 16.5 11C16.5 7.96675 14.0333 5.5 11 5.5C7.96675 5.5 5.5 7.96675 5.5 11C5.5 14.0333 7.96675 16.5 11 16.5ZM11 8.25C12.5166 8.25 13.75 9.48337 13.75 11C13.75 12.5166 12.5166 13.75 11 13.75C9.48337 13.75 8.25 12.5166 8.25 11C8.25 9.48337 9.48337 8.25 11 8.25Z" fill="#8B8B8B"/>
<path d="M10.2026 27.2442C10.4355 27.41 10.7143 27.4992 11.0001 27.4992C11.286 27.4992 11.5647 27.41 11.7976 27.2442C12.2156 26.9486 22.04 19.855 22.0001 11C22.0001 4.93487 17.0652 0 11.0001 0C4.935 0 0.000121052 4.93487 0.000121052 10.9931C-0.0397539 19.855 9.78462 26.9486 10.2026 27.2442ZM11.0001 2.75C15.55 2.75 19.2501 6.45012 19.2501 11.0069C19.279 17.1091 13.2166 22.5885 11.0001 24.3856C8.785 22.5871 2.72125 17.1064 2.75012 11C2.75012 6.45012 6.45025 2.75 11.0001 2.75Z" fill="#8B8B8B"/>
</svg>
