<svg width="22" height="50" viewBox="0 0 22 50" fill="none" xmlns="http://www.w3.org/2000/svg">
<path d="M4.88293 41.8398C4.88293 43.5977 6.03137 45.4141 7.64856 46.1055L7.03918 46.9727C5.80286 46.4277 4.81848 45.2734 4.33215 43.8672C3.84583 45.3672 2.85559 46.6445 1.63684 47.2422L0.99231 46.3633C2.57434 45.625 3.74622 43.6445 3.75793 41.8398V40.7266H1.35559V39.8008H7.27356V40.7266H4.88293V41.8398ZM9.71106 38.7461V49.2461H8.59778V38.7461H9.71106ZM19.8947 43.5859V44.4766H16.7189V47.043H20.9962V47.957H11.3868V47.043H15.6173V44.4766H12.5822V39.5547H19.8009V40.457H13.6954V43.5859H19.8947Z" fill="#8B2842"/>
<path d="M11.0001 16.5C14.0334 16.5 16.5001 14.0333 16.5001 11C16.5001 7.96675 14.0334 5.5 11.0001 5.5C7.96687 5.5 5.50012 7.96675 5.50012 11C5.50012 14.0333 7.96687 16.5 11.0001 16.5ZM11.0001 8.25C12.5167 8.25 13.7501 9.48337 13.7501 11C13.7501 12.5166 12.5167 13.75 11.0001 13.75C9.4835 13.75 8.25012 12.5166 8.25012 11C8.25012 9.48337 9.4835 8.25 11.0001 8.25Z" fill="#8B2842"/>
<path d="M10.2026 27.2442C10.4355 27.41 10.7143 27.4992 11.0001 27.4992C11.286 27.4992 11.5647 27.41 11.7976 27.2442C12.2156 26.9486 22.04 19.855 22.0001 11C22.0001 4.93487 17.0652 0 11.0001 0C4.935 0 0.000121052 4.93487 0.000121052 10.9931C-0.0397539 19.855 9.78462 26.9486 10.2026 27.2442ZM11.0001 2.75C15.55 2.75 19.2501 6.45012 19.2501 11.0069C19.279 17.1091 13.2166 22.5885 11.0001 24.3856C8.785 22.5871 2.72125 17.1064 2.75012 11C2.75012 6.45012 6.45025 2.75 11.0001 2.75Z" fill="#8B2842"/>
</svg>
