<svg width="27" height="49" viewBox="0 0 27 49" fill="none" xmlns="http://www.w3.org/2000/svg">
<path d="M9.82422 38.5391V45.3594H4.91406V38.5391H9.82422ZM6.00391 39.418V44.457H8.72266V39.418H6.00391ZM12.6953 37.4961V41.6094H14.3828V42.5469H12.6953V47.9961H11.582V37.4961H12.6953ZM23.582 37.4961V48.0195H22.4688V37.4961H23.582ZM17.9688 38.2812C19.5273 38.2812 20.6758 39.7109 20.6758 41.9609C20.6758 44.2227 19.5273 45.6523 17.9688 45.6523C16.3867 45.6523 15.25 44.2227 15.25 41.9609C15.25 39.7109 16.3867 38.2812 17.9688 38.2812ZM17.9688 39.2773C16.9961 39.2773 16.3281 40.3086 16.3281 41.9609C16.3281 43.625 16.9961 44.6562 17.9688 44.6562C18.9297 44.6562 19.5977 43.625 19.5977 41.9609C19.5977 40.3086 18.9297 39.2773 17.9688 39.2773Z" fill="#8B2842"/>
<path d="M13.5 13.5C15.2902 13.5 17.0071 12.7888 18.273 11.523C19.5388 10.2571 20.25 8.54021 20.25 6.75C20.25 4.95979 19.5388 3.2429 18.273 1.97703C17.0071 0.711159 15.2902 0 13.5 0C11.7098 0 9.9929 0.711159 8.72703 1.97703C7.46116 3.2429 6.75 4.95979 6.75 6.75C6.75 8.54021 7.46116 10.2571 8.72703 11.523C9.9929 12.7888 11.7098 13.5 13.5 13.5ZM18 6.75C18 7.94347 17.5259 9.08807 16.682 9.93198C15.8381 10.7759 14.6935 11.25 13.5 11.25C12.3065 11.25 11.1619 10.7759 10.318 9.93198C9.47411 9.08807 9 7.94347 9 6.75C9 5.55653 9.47411 4.41193 10.318 3.56802C11.1619 2.72411 12.3065 2.25 13.5 2.25C14.6935 2.25 15.8381 2.72411 16.682 3.56802C17.5259 4.41193 18 5.55653 18 6.75ZM27 24.75C27 27 24.75 27 24.75 27H2.25C2.25 27 0 27 0 24.75C0 22.5 2.25 15.75 13.5 15.75C24.75 15.75 27 22.5 27 24.75ZM24.75 24.741C24.7477 24.1875 24.4035 22.5225 22.878 20.997C21.411 19.53 18.6503 18 13.5 18C8.34975 18 5.589 19.53 4.122 20.997C2.5965 22.5225 2.2545 24.1875 2.25 24.741H24.75Z" fill="#8B2842"/>
</svg>
