<svg width="179" height="53" viewBox="0 0 179 53" fill="none" xmlns="http://www.w3.org/2000/svg">
<path d="M120.22 31.3047C120.447 31.2034 120.746 31.1356 121.069 31.2275L121.07 31.2266L124.244 32.0693C124.499 32.1194 124.814 32.2602 125.002 32.5986C125.187 32.9317 125.145 33.2768 125.091 33.4941L125.081 33.5342L125.066 33.5732C124.803 34.2956 124.54 35.0691 124.276 35.8936C124.032 36.7604 123.719 37.5951 123.337 38.3955L123.336 38.3945L122.906 39.3457C124.709 40.7029 126.39 41.9904 127.945 43.21L128.583 43.6963C130.026 44.8139 131.158 45.8209 131.961 46.7158H131.96C132.195 46.9605 132.369 47.2577 132.44 47.6055C132.595 48.1502 132.359 48.6413 132.104 48.9805L132.102 48.9795C131.906 49.2609 131.57 49.6066 131.157 49.9883C130.734 50.4098 130.345 50.7498 129.998 50.9873C129.79 51.1513 129.472 51.3079 129.084 51.2373C128.701 51.1675 128.454 50.9119 128.313 50.7148L128.3 50.6963L128.288 50.6758C127.752 49.8247 127.032 48.8955 126.121 47.8867L126.111 47.875C125.227 46.8599 124.276 45.8597 123.258 44.875L123.249 44.8662L123.24 44.8564C122.504 44.0957 121.779 43.4012 121.066 42.7734C120.103 44.3469 118.96 45.9392 117.637 47.5498L117.638 47.5508C116.094 49.4728 114.325 51.1557 112.334 52.5977L112.32 52.6074C112.011 52.821 111.655 52.9714 111.259 52.9873C110.868 53.0029 110.509 52.8835 110.197 52.6816V52.6826C109.584 52.3082 109.085 51.9715 108.715 51.6748L108.703 51.665C108.517 51.5097 108.234 51.1905 108.281 50.7207C108.324 50.2888 108.623 50.0259 108.8 49.8994L108.821 49.8838L108.842 49.8701C109.836 49.2534 110.812 48.4972 111.771 47.6016C111.684 47.6143 111.589 47.6189 111.49 47.6064C111.159 47.5648 110.921 47.3754 110.774 47.1797L110.769 47.1738L110.765 47.167C110.024 46.1359 109.15 45.0987 108.14 44.0566C107.349 43.24 106.549 42.4852 105.741 41.791C104.841 43.1314 103.767 44.5251 102.52 45.9707C101.033 47.6997 99.2423 49.2491 97.153 50.6191L97.1521 50.6182C96.8438 50.833 96.4859 50.9521 96.0954 50.9365C95.7053 50.9209 95.3467 50.7755 95.0319 50.5732L95.0173 50.5635L95.0017 50.5527L93.8024 49.7031L93.7468 49.6641L93.6989 49.6152C93.5888 49.505 93.4828 49.3537 93.4284 49.1582C93.373 48.9586 93.3857 48.7634 93.4362 48.5947C93.5276 48.2907 93.7391 48.0754 93.8942 47.9424L93.947 47.8965L94.0075 47.8613C95.4149 47.0297 96.7122 46.0209 97.8991 44.834L97.906 44.8271H97.9069C99.138 43.6285 100.203 42.3686 101.104 41.0488C102.017 39.6791 102.742 38.4017 103.287 37.2168L103.412 36.9346C103.694 36.2705 103.919 35.5679 104.084 34.8262L104.086 34.8164L104.089 34.8057C104.31 33.9183 104.394 33.2013 104.366 32.6396L104.365 32.6201V32.5996C104.365 32.4236 104.392 32.1898 104.52 31.9658C104.648 31.7422 104.846 31.5819 105.079 31.501C105.283 31.4111 105.546 31.3479 105.83 31.4043L105.967 31.4414L105.971 31.4424L108.922 32.4424H108.921C109.24 32.5499 109.52 32.7969 109.624 33.1768C109.71 33.4916 109.644 33.7926 109.574 34.0029L109.566 34.0254L109.557 34.0469C109.289 34.7177 108.988 35.455 108.653 36.2578C108.362 37.0001 108.038 37.7129 107.685 38.3975C108.319 38.8558 108.972 39.3435 109.644 39.8604C110.518 40.499 111.327 41.1221 112.071 41.7305H112.07C112.837 42.2998 113.457 42.8422 113.904 43.3594C114.092 43.5515 114.253 43.7705 114.366 44.0166C114.476 44.2102 114.52 44.4029 114.521 44.5869C116.125 42.5514 117.462 40.2857 118.529 37.7861C118.873 36.9394 119.158 35.9891 119.382 34.9336C119.605 33.8779 119.654 33.0814 119.573 32.5127V32.5117C119.547 32.3432 119.534 32.0974 119.641 31.8477C119.758 31.5751 119.975 31.393 120.22 31.3047ZM110.747 52.0771C110.749 52.0781 110.751 52.0782 110.753 52.0791C110.707 52.0561 110.66 52.0303 110.615 52L110.747 52.0771ZM165.607 34.458C165.881 34.4189 166.159 34.4119 166.426 34.458L166.427 34.457L169.027 34.8076H169.026C169.361 34.8512 169.717 35.0299 169.911 35.417C170.058 35.7108 170.053 36.0204 170.018 36.2617L169.87 37.9404L169.769 39.9404V39.9424C169.736 40.5713 169.72 41.0377 169.72 41.3496V41.3652L169.57 49.1152L169.569 49.1143C169.566 49.4821 169.464 49.8971 169.129 50.21C168.799 50.517 168.38 50.5996 168.02 50.5996H167.993C167.039 50.5667 165.832 50.5498 164.371 50.5498H150.743L149.201 50.5996C148.774 50.616 148.431 50.6313 148.173 50.6475L148.174 50.6484L145.924 50.7979L145.897 50.7998H145.871C145.683 50.7998 145.508 50.7556 145.368 50.709C144.764 50.5076 144.671 49.9273 144.671 49.6504V46.6504C144.671 45.4294 144.637 43.4912 144.571 40.8311L144.535 40.2041C144.487 39.5704 144.404 38.9155 144.283 38.2402C144.202 37.7877 144.124 37.4379 144.051 37.1826C143.976 36.9182 143.924 36.8229 143.92 36.8154L143.912 36.8047L143.905 36.7939C143.715 36.5096 143.494 36.0135 143.755 35.4922L143.787 35.4277L143.831 35.3701C144.136 34.9629 144.593 34.8497 144.97 34.8496H144.989L145.008 34.8506L148.208 35.001H148.207C149.025 35.0336 150.062 35.0498 151.32 35.0498C152.58 35.0498 153.907 35.0332 155.301 35C156.734 34.9667 158.117 34.9337 159.449 34.9004C160.806 34.8341 162.013 34.7673 163.071 34.7012C164.132 34.6348 164.912 34.5693 165.42 34.5059L165.479 34.4766L165.607 34.458ZM145.508 49.8506C145.52 49.8732 145.535 49.8914 145.551 49.9072C145.535 49.8915 145.52 49.8733 145.508 49.8506ZM33.4401 4.21387C33.6111 4.22241 33.8099 4.23411 34.0339 4.25C34.5263 4.25072 35.005 4.26754 35.4694 4.2998H36.2497C36.5889 4.2998 36.9178 4.45943 37.1159 4.77637C37.2747 5.03059 37.2995 5.30933 37.2995 5.5V5.53223L37.2976 5.56445C37.1983 6.78925 37.1321 7.86022 37.0993 8.77832V22.79C37.7408 22.7766 38.4161 22.7485 39.1247 22.7031C40.1805 22.6041 41.1538 22.505 42.0437 22.4062C42.9638 22.2746 43.6182 22.1489 44.03 22.0312L44.0944 22.0127L44.1618 22.0049C44.3954 21.979 44.7154 21.9865 45.0114 22.1641C45.3422 22.3626 45.4953 22.6818 45.5398 22.9785H45.5407C45.6104 23.4316 45.6621 23.8853 45.697 24.3389C45.7303 24.7721 45.7642 25.2054 45.7976 25.6387L45.7995 25.6689V25.7002C45.7995 25.9722 45.7474 26.3247 45.5065 26.6191C45.2405 26.9442 44.8699 27.0498 44.5495 27.0498H44.4968L44.444 27.043C43.9977 26.9835 43.3062 26.9502 42.3493 26.9502H39.3493C38.5719 26.9502 37.8218 26.9617 37.0993 26.9795V46.25C37.0993 46.5131 37.0914 46.7464 37.07 46.9385C37.0594 47.0343 37.0434 47.1348 37.0192 47.2314C37.004 47.2924 36.9777 47.382 36.9304 47.4785C36.7412 47.9313 36.3089 48.0843 36.0564 48.1348L36.0017 48.1455L35.947 48.1484L33.3972 48.2988L33.3728 48.2998H33.3493C33.1062 48.2996 32.797 48.2151 32.5749 47.9375C32.38 47.6937 32.3493 47.4188 32.3493 47.25V11.1504C32.3493 9.90431 32.3001 8.76247 32.2028 7.72461L32.2019 7.71191L32.2009 7.69824C32.1684 7.163 32.1254 6.73795 32.073 6.41602C32.0178 6.07694 31.9617 5.91222 31.9343 5.85742L31.9196 5.82812L31.9069 5.79688C31.8314 5.60805 31.6375 5.03036 32.0837 4.58398C32.3236 4.34412 32.6405 4.20027 32.9997 4.2002L33.4401 4.21387ZM79.9245 4.21387C80.0955 4.22241 80.2943 4.23411 80.5183 4.25C81.0107 4.25072 81.4894 4.26754 81.9538 4.2998H82.7341C83.0732 4.2998 83.4022 4.45943 83.6003 4.77637C83.759 5.03059 83.7839 5.30933 83.7839 5.5V5.53223L83.7819 5.56445C83.6826 6.78925 83.6165 7.86022 83.5837 8.77832V46.25C83.5837 46.5131 83.5757 46.7464 83.5544 46.9385C83.5437 47.0343 83.5278 47.1348 83.5036 47.2314C83.4884 47.2924 83.462 47.382 83.4147 47.4785C83.2256 47.9313 82.7933 48.0843 82.5407 48.1348L82.486 48.1455L82.4314 48.1484L79.8815 48.2988L79.8571 48.2998H79.8337C79.5906 48.2996 79.2814 48.2151 79.0593 47.9375C78.8643 47.6937 78.8337 47.4188 78.8337 47.25V11.1504C78.8337 9.90431 78.7845 8.76247 78.6872 7.72461L78.6862 7.71191L78.6853 7.69824C78.6528 7.163 78.6097 6.73795 78.5573 6.41602C78.5021 6.07694 78.4461 5.91222 78.4187 5.85742L78.404 5.82812L78.3913 5.79688C78.3158 5.60805 78.1219 5.03036 78.5681 4.58398C78.8079 4.34412 79.1248 4.20027 79.4841 4.2002L79.9245 4.21387ZM154.82 47.1504C154.454 47.1587 154.096 47.1648 153.749 47.1689C154.097 47.1648 154.454 47.1587 154.821 47.1504C155.571 47.1504 156.317 47.146 157.058 47.1377C156.316 47.1462 155.57 47.1504 154.82 47.1504ZM149.22 38.9854V46.332C149.647 46.3428 150.197 46.3496 150.871 46.3496H150.882L150.893 46.3506C152.043 46.3834 153.346 46.3837 154.802 46.3506L154.811 46.3496H154.82C156.314 46.3496 157.792 46.333 159.253 46.2998C160.751 46.2665 162.083 46.2335 163.248 46.2002C163.96 46.1798 164.535 46.1514 164.978 46.1201L165.066 38.7061L149.22 38.9854ZM114.814 45.5C114.704 45.6353 114.593 45.7688 114.482 45.9004C114.593 45.7687 114.705 45.6355 114.815 45.5C114.928 45.3625 115.038 45.2235 115.148 45.084C115.038 45.2236 114.927 45.3624 114.814 45.5ZM144.57 36.3496C144.737 36.5829 144.903 37.1666 145.07 38.0996H145.071C144.904 37.1665 144.738 36.5829 144.571 36.3496H144.57ZM67.5329 8.27441C67.7179 8.21069 67.9574 8.15808 68.2146 8.2002H68.573L68.7116 8.26855L68.7321 8.27441L71.0817 8.875H71.0808C71.2638 8.92101 71.5533 9.01828 71.7663 9.2666C71.8863 9.40664 71.9736 9.58549 71.9978 9.79102C72.0143 9.93164 71.9971 10.0601 71.9675 10.1709C71.9294 10.4571 71.8644 10.8658 71.7722 11.3887L71.7702 11.3975C71.6708 11.9278 71.5719 12.4751 71.4724 13.0391C71.3749 13.5916 71.2924 14.0501 71.2263 14.4141L70.0769 23.0059L70.0759 23.0049C70.0428 23.2776 69.9371 23.5912 69.6696 23.832C69.3958 24.0784 69.0636 24.1504 68.7839 24.1504C68.4336 24.1504 67.8135 24.1659 66.9138 24.1992C66.0111 24.2326 64.9753 24.2664 63.8073 24.2998C62.6484 24.3329 61.4888 24.382 60.3298 24.4482C59.1661 24.5147 58.1198 24.5821 57.1911 24.6484L57.1765 24.6494H57.1628C56.6774 24.6667 56.2682 24.6842 55.9343 24.7012V33.0996C55.9343 33.1406 55.9365 33.1772 55.9382 33.209C56.8714 33.2593 58.1738 33.2272 59.861 33.1025C61.6359 32.9382 63.5642 32.675 65.6462 32.3115C67.7237 31.9488 69.7516 31.5037 71.7282 30.9766H71.7312C73.7243 30.4538 75.4003 29.838 76.7692 29.1377L76.8024 29.1211L76.8366 29.1074C77.0346 29.0282 77.3418 28.9296 77.6647 28.9883C77.8505 29.0221 78.0537 29.1107 78.2175 29.2871C78.3369 29.4158 78.4056 29.5593 78.444 29.6914L78.4733 29.8184L78.4743 29.8281L78.4763 29.8369L78.5759 30.5371L78.5769 30.542L78.7263 31.6416L78.7341 31.6953V31.75C78.7341 31.9894 78.6885 32.2264 78.5935 32.4531L78.5554 32.5498C78.4575 32.765 78.3004 32.9068 78.1892 32.9902C78.0572 33.0891 77.9077 33.1652 77.7644 33.2275C76.6135 33.7506 75.0884 34.2809 73.2038 34.8193L73.195 34.8223C71.3436 35.3272 69.2935 35.8139 67.0476 36.2832L67.0388 36.2852C64.8236 36.7215 62.6079 37.0905 60.3923 37.3926C58.1683 37.6958 56.1359 37.8654 54.2985 37.8994L54.2732 37.9004L54.2478 37.8994C53.2101 37.8522 52.4094 37.3065 51.8894 36.3965C51.4017 35.5428 51.1843 34.5117 51.1843 33.3496V26.0498C51.1843 25.3964 51.1674 24.6913 51.1345 23.9346C51.1042 23.2396 50.9842 22.6011 50.779 22.0146V22.0137C50.6834 21.7683 50.5307 21.2303 50.9265 20.79C51.1259 20.5685 51.3779 20.4846 51.5651 20.4541C51.7374 20.4262 51.9088 20.4338 52.0603 20.4531C52.4254 20.4829 53.1088 20.5 54.1345 20.5C55.1929 20.5 56.3866 20.4834 57.7146 20.4502C59.0405 20.417 60.3503 20.3837 61.6433 20.3506L63.4353 20.251C63.9737 20.2183 64.4634 20.1858 64.904 20.1533C65.3073 20.1101 65.6268 20.0702 65.8659 20.0352C65.9392 19.4541 66.0133 18.768 66.0876 17.9756C66.1876 16.909 66.2874 15.842 66.3874 14.7754L66.3884 14.7646L66.3903 14.7539C66.4895 13.9357 66.5598 13.2365 66.6022 12.6543C65.3685 12.6659 64.096 12.7124 62.7858 12.7979L62.778 12.7988H62.7692C61.2736 12.8653 59.8274 12.9316 58.4314 12.998C57.6333 13.0645 56.7698 13.1319 55.8415 13.1982C54.911 13.2647 54.047 13.3311 53.2507 13.3975L53.2497 13.3965C53.0474 13.4146 52.8523 13.4226 52.6774 13.4102C52.5306 13.3997 52.271 13.3692 52.0407 13.2158L51.9069 13.127L51.8181 12.9941C51.6931 12.8067 51.6001 12.5774 51.5251 12.3525L51.5183 12.333L51.5124 12.3125L50.9685 10.334C50.9141 10.1729 50.8986 9.99128 50.945 9.80566C50.9909 9.62216 51.0851 9.48345 51.1726 9.38477C51.2672 9.26389 51.4042 9.13579 51.5993 9.05762C51.7948 8.97944 51.9883 8.97529 52.1579 9.00879C52.3332 9.03158 52.8495 9.0498 53.7839 9.0498C54.7418 9.0498 55.8686 9.03321 57.1638 9C58.4873 8.96691 59.8282 8.9167 61.1853 8.85059C62.5758 8.75129 63.8528 8.6691 65.0153 8.60254C66.1528 8.50504 66.9854 8.39366 67.5329 8.27441ZM26.9997 8.5498C27.1842 8.5498 27.3688 8.58033 27.5437 8.62402C27.7651 8.67939 27.9701 8.80046 28.1267 8.98828C28.2383 9.12236 28.3079 9.26852 28.3503 9.40723L28.3845 9.54297L28.3884 9.56836C28.422 9.76987 28.4546 9.99925 28.487 10.2549C28.5553 10.5359 28.6079 10.8177 28.6433 11.1006L28.6452 11.1113L28.7439 12.0049C28.7942 12.3409 28.7474 12.7753 28.3903 13.1025C28.0678 13.398 27.65 13.4502 27.3493 13.4502H27.3288L27.3073 13.4492C26.6912 13.4168 25.989 13.4004 25.1999 13.4004H21.1501C20.6287 13.4004 20.071 13.4105 19.4782 13.4277C19.3483 14.5923 19.1139 15.7976 18.7751 17.043L18.7761 17.0439C18.4448 18.3692 17.9823 19.7149 17.3933 21.0811C18.8247 22.1129 20.2315 23.195 21.6091 24.333H21.6081C23.1796 25.6038 24.5883 26.8109 25.8327 27.9541L26.7419 28.7832C27.4563 29.45 28.0653 30.0567 28.5651 30.6025L28.8523 30.9229L28.863 30.9365L28.8747 30.9502C29.0666 31.1901 29.2023 31.4637 29.2946 31.7568C29.5234 32.2773 29.371 32.7861 29.1003 33.165L29.0856 33.1865L29.069 33.207C28.7261 33.6262 28.3282 34.0034 27.8796 34.3398L27.8698 34.3467C27.5179 34.6026 27.1647 34.875 26.8112 35.1641C26.6256 35.3187 26.2919 35.5193 25.8679 35.4346C25.4705 35.355 25.2408 35.0723 25.1208 34.8711L25.1198 34.8721C24.5548 33.9617 23.6887 32.8509 22.5046 31.5352L22.4909 31.5195C21.341 30.1725 20.0912 28.8398 18.7409 27.5225L18.7341 27.5156C17.6497 26.4312 16.6022 25.4922 15.5935 24.6943C14.4807 26.6036 13.1363 28.4942 11.5622 30.3652L11.5612 30.3643C9.78736 32.4791 7.63038 34.4816 5.09737 36.375C5.026 36.4357 4.95179 36.4825 4.88448 36.5205C4.61696 36.7085 4.33922 36.8634 4.05245 36.959L3.99288 36.9785L3.93135 36.9893C3.43528 37.0718 2.9552 36.8557 2.58858 36.6357L2.5417 36.6084L2.49971 36.5742C2.35919 36.4618 2.14767 36.3096 1.85616 36.1152L1.81221 36.0869L1.77315 36.0518C1.49912 35.812 1.26742 35.5997 1.0837 35.416L1.06221 35.3936L1.04268 35.3711C0.891398 35.1946 0.678001 34.8778 0.715533 34.4648C0.754214 34.0403 1.02752 33.7785 1.25264 33.6367C4.56119 31.3093 7.10323 28.9044 8.90303 26.4297C10.7319 23.915 12.0211 21.4884 12.7898 19.1504C13.4502 17.1136 13.8696 15.2814 14.0632 13.6504L11.4597 13.7979L5.97237 14.2969L5.97139 14.2959C5.77159 14.3155 5.56327 14.3213 5.36592 14.291C5.17604 14.2618 4.90434 14.1858 4.68428 13.9658L4.64424 13.9258L4.61006 13.8799C4.48872 13.7181 4.38743 13.5429 4.3044 13.3574C4.2494 13.2744 4.20006 13.1717 4.17256 13.0508C4.04572 12.6968 3.94446 12.3766 3.87374 12.0938L3.86006 12.042L3.8542 11.9883C3.82631 11.7373 3.75218 11.3415 3.62081 10.7832L3.61299 10.748L3.60811 10.7129C3.56732 10.427 3.61281 10.0287 3.94795 9.73535C4.23219 9.48669 4.57952 9.45025 4.79952 9.4502H4.82784L4.85713 9.45215C5.77606 9.51778 6.62838 9.56666 7.41377 9.59961H11.0495C12.84 9.59961 14.4447 9.56694 15.863 9.50098L16.9353 9.44824C17.985 9.39234 18.9687 9.32726 19.8855 9.25293L19.8884 9.25195C21.187 9.15206 22.2174 9.06925 22.9802 9.00293C23.7321 8.93754 24.3841 8.87229 24.9362 8.80762C25.552 8.70548 26.2149 8.62121 26.9235 8.55371L26.9616 8.5498H26.9997ZM52.5837 36C52.6337 36.0876 52.6866 36.1699 52.7419 36.2471C52.6867 36.17 52.6347 36.0874 52.5847 36C52.5346 35.9123 52.4869 35.8219 52.4431 35.7285C52.4868 35.8219 52.5337 35.9124 52.5837 36ZM153.27 35.8369C152.604 35.8452 151.953 35.8486 151.32 35.8486L151.321 35.8496C152.588 35.8496 153.921 35.8331 155.321 35.7998H155.32C154.62 35.8165 153.937 35.8286 153.27 35.8369ZM56.1276 34.0205C56.1713 34.0222 56.2156 34.0221 56.2605 34.0234C56.0743 34.0179 55.8986 34.011 55.7341 34L56.1276 34.0205ZM158.02 19.9502C158.315 19.9502 158.653 20.0608 158.885 20.3701C159.035 20.5696 159.093 20.7901 159.112 20.9766L159.121 21.1504V21.2686L159.12 21.2861C159.086 22.02 159.053 22.7379 159.019 23.4385V23.4404C158.986 24.0991 158.953 24.9078 158.92 25.8672L158.921 25.8682L158.889 27.2168L165.688 26.9502C168.178 26.8174 170.385 26.6844 172.308 26.5518C173.776 26.4273 174.962 26.3045 175.871 26.1826L176.689 26.0605C176.885 26.0229 177.093 25.9992 177.295 26.0146C177.495 26.0301 177.795 26.0933 178.036 26.334C178.21 26.5083 178.327 26.7131 178.398 26.9268L178.455 27.1436L178.46 27.167L178.463 27.1924L178.763 29.3916L178.766 29.417L178.768 29.4434C178.8 29.8873 178.657 30.3666 178.21 30.6729C177.834 30.9296 177.373 30.9688 176.98 30.9492L176.968 30.9482C175.96 30.8832 174.579 30.8496 172.82 30.8496C171.092 30.8496 169.213 30.8661 167.183 30.8994L167.171 30.9004C165.381 30.9004 163.539 30.9327 161.648 30.999L161.634 31L156.337 31.0996C154.705 31.1329 153.291 31.165 152.093 31.1982L152.094 31.1992C148.732 31.2991 145.703 31.4158 143.009 31.5488C140.316 31.6819 138.252 31.8314 136.811 31.9951L136.801 31.9961L136.793 31.9971C136.575 32.0169 136.356 32.0204 136.152 31.9932C135.955 31.9669 135.708 31.904 135.49 31.7402C135.202 31.5243 135.024 31.229 134.919 30.9229V30.9238C134.778 30.5371 134.654 30.1491 134.549 29.7607C134.448 29.3931 134.333 28.9335 134.204 28.3848C134.084 28.0358 134.199 27.7232 134.305 27.5361L134.355 27.4561C134.461 27.2837 134.619 27.1235 134.842 27.0273C135.069 26.9301 135.293 26.9294 135.473 26.958L135.474 26.957C136.708 27.1193 138.416 27.251 140.607 27.3506H140.606C142.79 27.4166 145.191 27.4335 147.81 27.4004H151.399C152.379 27.3739 153.37 27.3468 154.371 27.3203V26.2002C154.371 24.917 154.321 23.8852 154.226 23.0957C154.126 22.2642 154.018 21.7735 153.927 21.5469C153.836 21.3189 153.701 20.8469 154.003 20.416C154.298 19.9947 154.778 19.9503 155.02 19.9502H158.02ZM23.0993 31C23.2494 31.1667 23.3952 31.3302 23.5358 31.4912C23.3955 31.3302 23.2502 31.1666 23.1003 31C22.9545 30.8292 22.8069 30.6586 22.6579 30.4883L23.0993 31ZM124.5 0C127.537 0 130 3.13401 130 7C130 9.8133 128.695 12.2372 126.814 13.3496V28.7998C126.814 29.0629 126.806 29.2962 126.785 29.4883C126.774 29.5841 126.758 29.6846 126.734 29.7812C126.719 29.8433 126.691 29.9348 126.642 30.0332C126.452 30.482 126.023 30.6342 125.771 30.6846L125.717 30.6953L125.662 30.6982L123.112 30.8486L123.088 30.8496H123.064C122.821 30.8495 122.512 30.7649 122.29 30.4873C122.095 30.2435 122.064 29.9686 122.064 29.7998V13.2764C120.249 12.1329 119 9.75251 119 7C119 3.13408 121.462 0.000125946 124.5 0ZM164.433 30.125C164.25 30.1283 164.066 30.1328 163.882 30.1367C164.531 30.1228 165.174 30.1123 165.811 30.1064L164.433 30.125ZM20.7946 28.457H20.7956H20.7946ZM102.935 7.2998C104.945 7.19584 106.805 7.53187 108.497 8.32227H108.498C110.228 9.11522 111.625 10.2944 112.675 11.8506C113.748 13.4055 114.264 15.2694 114.264 17.4004C114.264 19.3828 113.739 21.1869 112.682 22.79L112.677 22.7969C111.633 24.3455 110.247 25.5679 108.534 26.46C106.823 27.3511 104.955 27.8288 102.943 27.8994L102.928 27.9004V27.8994C100.913 27.9347 99.0389 27.5457 97.319 26.7217L97.3132 26.7188C95.6267 25.8934 94.2523 24.7198 93.2058 23.2041L93.194 23.1865C92.1685 21.6115 91.6647 19.8066 91.6647 17.7998C91.6648 15.8536 92.1718 14.0837 93.194 12.5137L93.197 12.5098C94.2362 10.9332 95.5997 9.67798 97.2771 8.75L97.2839 8.74609C98.9993 7.81701 100.888 7.33739 102.935 7.2998ZM19.2995 26.9502L18.7898 26.4473C18.7613 26.4196 18.7323 26.3927 18.7038 26.3652C18.9013 26.5556 19.0999 26.7506 19.2995 26.9502ZM177.146 26.8096C177.054 26.811 176.945 26.8246 176.82 26.8496H176.821C176.946 26.8247 177.054 26.8112 177.146 26.8096ZM97.948 26.1309C98.0488 26.1757 98.1506 26.218 98.2526 26.2598C98.0546 26.1787 97.8584 26.0928 97.6647 26L97.948 26.1309ZM18.53 26.2002C18.3983 26.0747 18.2671 25.9514 18.1364 25.8301C18.2671 25.9514 18.3984 26.0747 18.53 26.2002ZM17.9294 25.6387C17.8063 25.5261 17.6835 25.4155 17.5612 25.3066C17.6834 25.4156 17.8064 25.526 17.9294 25.6387ZM17.3444 25.1133C17.1604 24.952 16.9776 24.7945 16.7956 24.6416C16.9776 24.7945 17.1605 24.9519 17.3444 25.1133ZM156.248 3.77344C156.66 3.5832 157.066 3.69832 157.323 3.81055L157.324 3.80957L160.374 5.05957L160.395 5.06934C160.636 5.17655 160.996 5.40459 161.109 5.85645C161.21 6.26061 161.052 6.60102 160.905 6.81641C160.569 7.4535 160.122 8.26344 159.566 9.24414L159.56 9.25488C159.187 9.89204 158.809 10.4874 158.432 11.0439C159.862 11.5471 161.335 12.0828 162.851 12.6514C164.726 13.3544 166.486 14.0581 168.131 14.7627L168.749 15.0273C170.16 15.6423 171.343 16.239 172.289 16.8184H172.288C172.55 16.9768 172.781 17.1925 172.985 17.4375C173.173 17.6474 173.286 17.9075 173.306 18.1934C173.327 18.4828 173.251 18.7505 173.151 18.9746L173.147 18.9844L173.142 18.9941C172.787 19.7397 172.315 20.5421 171.732 21.3994L171.73 21.3984C171.606 21.5969 171.381 21.8587 171.003 21.9346C170.579 22.0193 170.244 21.8196 170.058 21.665L170.051 21.6592L170.046 21.6533C169.326 21.028 168.369 20.3556 167.162 19.6377L167.148 19.6299C165.94 18.8789 164.631 18.1579 163.219 17.4688L163.213 17.4658L163.206 17.4619C161.792 16.7387 160.397 16.0992 159.02 15.542L158.999 15.5322C157.86 15.0321 156.833 14.6333 155.921 14.3262C154.309 16.1267 152.392 17.7857 150.176 19.3057L150.177 19.3066C147.876 20.908 145.41 22.2933 142.784 23.4668L142.703 23.5488L142.523 23.6094C142.262 23.6964 141.975 23.7558 141.67 23.7939L141.62 23.7998H141.57C141.24 23.7996 140.958 23.6703 140.742 23.5215C140.535 23.3789 140.347 23.1912 140.175 22.9854L139.276 21.9854L139.237 21.9424L139.205 21.8936C139.072 21.6942 138.889 21.3508 138.957 20.9434C139.037 20.46 139.401 20.2117 139.679 20.1045L140.458 19.791C142.259 19.044 143.958 18.1854 145.555 17.2158C147.38 16.0745 148.986 14.857 150.376 13.5645C151.768 12.2697 152.832 10.9931 153.585 9.73828L153.589 9.73145L153.593 9.72363C154.13 8.8713 154.572 7.97168 154.92 7.02441L154.927 7.00293C155.316 6.03134 155.519 5.29346 155.575 4.7666L155.578 4.73633L155.584 4.70703C155.637 4.41588 155.793 3.98349 156.248 3.77344ZM102.958 11.4482C101.088 11.5726 99.5669 12.196 98.3503 13.2939C97.1792 14.3509 96.5642 15.8037 96.5642 17.75C96.5642 19.8041 97.1841 21.2761 98.3327 22.29C99.563 23.3129 101.08 23.8109 102.938 23.75L103.276 23.7324C104.947 23.6122 106.332 23.0181 107.47 21.9629C108.652 20.8353 109.264 19.3418 109.264 17.4004C109.264 15.1922 108.618 13.7308 107.47 12.8291L107.463 12.8232C106.27 11.8633 104.787 11.3904 102.958 11.4482ZM141.481 22.9912L141.57 23V22.999C141.514 22.9989 141.456 22.989 141.396 22.9678C141.425 22.978 141.453 22.9859 141.481 22.9912ZM66.0837 20.8125C65.9504 20.8333 65.7922 20.855 65.6091 20.8779L66.0847 20.8125C66.2177 20.7917 66.3257 20.7716 66.4089 20.7529L66.0837 20.8125ZM154.894 20.7578C154.858 20.7628 154.826 20.7706 154.797 20.7803C154.856 20.7604 154.931 20.75 155.02 20.75L154.894 20.7578ZM17.1169 19.6387C16.9732 20.0157 16.8196 20.3951 16.655 20.7764L16.8942 20.2061C16.9713 20.0165 17.0451 19.8272 17.1169 19.6387ZM66.5837 20.7002C66.567 20.7085 66.5442 20.7168 66.5153 20.7256L66.5847 20.7002C66.6097 20.5252 66.6339 20.3385 66.6589 20.1406L66.5837 20.7002ZM167.57 18.9502C167.724 19.0419 167.875 19.133 168.022 19.2236L167.571 18.9502C167.263 18.7585 166.948 18.5693 166.627 18.3818L167.57 18.9502ZM110.025 18.25C110.027 18.2269 110.031 18.2039 110.033 18.1807L110.035 18.1562C110.032 18.1876 110.028 18.2188 110.025 18.25ZM110.032 16.543C110.054 16.8189 110.064 17.1047 110.064 17.4004L110.056 17.7949C110.062 17.665 110.065 17.5335 110.065 17.4004C110.065 17.1045 110.054 16.8181 110.032 16.542V16.543ZM159.32 14.7998C160.72 15.3664 162.137 16.0168 163.57 16.75C163.928 16.925 164.281 17.102 164.627 17.2812L163.571 16.75C162.138 16.0167 160.721 15.3665 159.321 14.7998H159.32ZM152.273 16.7236C152.485 16.5475 152.692 16.3686 152.896 16.1895C152.692 16.3687 152.485 16.5475 152.273 16.7236ZM154.454 14.7197C154.514 14.6587 154.573 14.5975 154.633 14.5361C154.573 14.5975 154.514 14.6587 154.454 14.7197ZM65.0837 9.40039L63.2468 9.5127L65.0847 9.40039C65.3761 9.37541 65.6499 9.34933 65.906 9.32227L65.0837 9.40039Z" fill="#A11D4A"/>
</svg>
