<svg width="28" height="50" viewBox="0 0 28 50" fill="none" xmlns="http://www.w3.org/2000/svg">
<path d="M13.9941 0.75C14.6281 0.75 15.2083 0.912529 15.7285 1.2373L15.9482 1.38672L25.9463 8.80469L26.0947 8.91797C26.4323 9.19191 26.7014 9.52817 26.9023 9.92383C27.1333 10.3751 27.25 10.8557 27.25 11.3613V27.1797C27.25 27.7391 27.0349 28.2283 26.6201 28.6348C26.2053 29.0412 25.7087 29.25 25.1426 29.25H17.9297C17.4426 29.25 17.0215 29.086 16.6846 28.7559C16.3479 28.4245 16.1787 28.01 16.1787 27.5293V18.541H11.8213V27.5293C11.8213 28.0108 11.6523 28.4255 11.3154 28.7559C10.9787 29.0859 10.5583 29.25 10.0723 29.25H2.85742C2.29133 29.25 1.79465 29.0412 1.37988 28.6348C0.965074 28.2283 0.75 27.7391 0.75 27.1797V11.3613L0.755859 11.1729C0.781182 10.736 0.894582 10.3188 1.09668 9.92383C1.32742 9.47293 1.64718 9.0995 2.05371 8.80664L12.0518 1.38672C12.6196 0.962159 13.2701 0.750056 13.9941 0.75ZM3.10742 26.9297H9.46387V17.9404C9.46387 17.4594 9.63335 17.045 9.97168 16.7148C10.3082 16.384 10.728 16.2198 11.2139 16.2197H16.7861C17.2722 16.2198 17.6926 16.384 18.0303 16.7148C18.3673 17.0452 18.5361 17.4597 18.5361 17.9404V26.9297H24.8926V11.3613C24.8926 11.213 24.8604 11.0843 24.7988 10.9707C24.7341 10.8514 24.6455 10.7453 24.5303 10.6523L14.5312 3.2666L14.5244 3.26172L14.5176 3.25586C14.3744 3.1338 14.2061 3.07129 14 3.07129C13.7941 3.07129 13.6269 3.13359 13.4854 3.25488L13.4775 3.26172L13.4707 3.2666L3.47754 10.6465C3.35891 10.744 3.26765 10.8531 3.2002 10.9736C3.13918 11.0827 3.10644 11.2091 3.10742 11.3594V26.9297Z" fill="#8B2842" stroke="#8B2842" stroke-width="0.5"/>
<path d="M18.1035 46.832V49.8672H10.8496V46.832H18.1035ZM11.9512 47.6875V49.0117H17.0254V47.6875H11.9512ZM18.7363 40.3281V41.1836H10.1934V40.3281H13.9316V39.3555H15.0449V40.3281H18.7363ZM14.4824 41.5586C16.6973 41.5586 17.9277 42.0625 17.9277 43.0469C17.9277 43.9434 16.9023 44.4414 15.0449 44.5234V45.2383H19.2754V46.1172H9.70117V45.2383H13.9316V44.5234C12.0742 44.4414 11.0254 43.9434 11.0371 43.0469C11.0254 42.0625 12.2793 41.5586 14.4824 41.5586ZM14.4824 42.3203C13.0176 42.332 12.2207 42.5664 12.2207 43.0469C12.2207 43.5156 13.0176 43.7734 14.4824 43.7734C15.959 43.7734 16.7441 43.5156 16.7441 43.0469C16.7441 42.5664 15.959 42.332 14.4824 42.3203Z" fill="#8B2842"/>
</svg>
