<svg width="26" height="48" viewBox="0 0 26 48" fill="none" xmlns="http://www.w3.org/2000/svg">
<path d="M8.94141 38.1523C8.94141 40.8242 7.11328 42.7227 4.06641 43.5781L3.60938 42.7109C6.0293 42.0312 7.53516 40.7188 7.75781 39.0664H4.16016V38.1523H8.94141ZM12.2695 37.5078V43.4492H11.1562V41.0586H8.98828V40.1328H11.1562V37.5078H12.2695ZM12.2695 43.8828V47.8555H5.40234V43.8828H12.2695ZM6.49219 44.7734V46.9648H11.168V44.7734H6.49219ZM17.0977 39.4766C17.0977 40.6602 17.8242 41.8438 19.1836 42.3711L18.5859 43.2266C17.625 42.8398 16.9453 42.1133 16.5703 41.2344C16.1777 42.2129 15.4629 43.0566 14.4492 43.4961L13.8398 42.6406C15.2578 42.0195 16.0195 40.6602 16.0195 39.4766V38.1289H17.0977V39.4766ZM22.8398 37.5078V43.8477H21.7852V41.1055H20.5547V43.7891H19.5234V37.6836H20.5547V40.1797H21.7852V37.5078H22.8398ZM22.8398 44.3984V47.9961H21.7383V45.3008H15.7031V44.3984H22.8398Z" fill="#8B2842"/>
<path fill-rule="evenodd" clip-rule="evenodd" d="M19.6995 17.7556C21.4145 15.5436 22.2228 12.7611 21.9599 9.97418C21.6969 7.18721 20.3826 4.60512 18.2842 2.75321C16.1858 0.901304 13.461 -0.0813104 10.6641 0.00527184C7.86717 0.0918541 5.20829 1.24113 3.22836 3.21929C1.24671 5.19882 0.0941313 7.85978 0.00551533 10.6599C-0.0831006 13.4601 0.898911 16.1886 2.75143 18.2896C4.60395 20.3906 7.18756 21.7058 9.97576 21.9673C12.764 22.2288 15.5469 21.4169 17.7575 19.697L17.8166 19.7589L23.6508 25.5968C23.7786 25.7246 23.9303 25.826 24.0973 25.8952C24.2642 25.9644 24.4432 26 24.6239 26C24.8046 26 24.9835 25.9644 25.1505 25.8952C25.3175 25.826 25.4692 25.7246 25.5969 25.5968C25.7247 25.469 25.8261 25.3172 25.8952 25.1502C25.9644 24.9831 26 24.8041 26 24.6233C26 24.4426 25.9644 24.2635 25.8952 24.0965C25.8261 23.9295 25.7247 23.7777 25.5969 23.6499L19.7614 17.8134L19.6995 17.7556ZM16.8443 5.16617C17.6208 5.93045 18.2384 6.84098 18.6614 7.84522C19.0844 8.84947 19.3044 9.92756 19.3089 11.0173C19.3133 12.1071 19.102 13.1869 18.6872 14.1946C18.2724 15.2022 17.6622 16.1178 16.892 16.8883C16.1217 17.6589 15.2065 18.2693 14.1993 18.6843C13.192 19.0993 12.1126 19.3107 11.0233 19.3062C9.93396 19.3018 8.8563 19.0816 7.85245 18.6584C6.84861 18.2353 5.93845 17.6174 5.17447 16.8406C3.64773 15.2882 2.79603 13.1951 2.80489 11.0173C2.81376 8.83953 3.68247 6.75346 5.2218 5.21352C6.76113 3.67358 8.84636 2.80452 11.0233 2.79565C13.2002 2.78678 15.2924 3.63882 16.8443 5.16617Z" fill="#8B2842"/>
</svg>
