<svg width="17" height="18" viewBox="0 0 17 18" fill="none" xmlns="http://www.w3.org/2000/svg">
<path d="M15.909 8.19363H3.72288L9.04682 2.75294C9.4723 2.31813 9.4723 1.6046 9.04682 1.16979C8.94589 1.06644 8.826 0.984441 8.69403 0.928494C8.56205 0.872547 8.42057 0.84375 8.27768 0.84375C8.1348 0.84375 7.99332 0.872547 7.86134 0.928494C7.72936 0.984441 7.60948 1.06644 7.50855 1.16979L0.319048 8.51694C0.217911 8.62009 0.137673 8.7426 0.0829265 8.87747C0.02818 9.01235 0 9.15693 0 9.30295C0 9.44896 0.02818 9.59354 0.0829265 9.72842C0.137673 9.86329 0.217911 9.9858 0.319048 10.0889L7.50855 17.4361C7.60955 17.5393 7.72946 17.6212 7.86143 17.6771C7.9934 17.7329 8.13484 17.7617 8.27768 17.7617C8.42053 17.7617 8.56197 17.7329 8.69394 17.6771C8.82591 17.6212 8.94582 17.5393 9.04682 17.4361C9.14782 17.3329 9.22794 17.2103 9.28261 17.0755C9.33727 16.9406 9.36541 16.7961 9.36541 16.6501C9.36541 16.5041 9.33727 16.3596 9.28261 16.2247C9.22794 16.0899 9.14782 15.9673 9.04682 15.8641L3.72288 10.4234H15.909C16.5091 10.4234 17 9.92171 17 9.30852C17 8.69533 16.5091 8.19363 15.909 8.19363Z" fill="black"/>
</svg>
