<svg width="26" height="26" viewBox="0 0 26 26" fill="none" xmlns="http://www.w3.org/2000/svg">
<path d="M12.7695 1.50781C12.855 1.30282 13.145 1.30282 13.2305 1.50781L16.04 8.26367C16.2921 8.86945 16.8626 9.2835 17.5166 9.33594L24.8096 9.91992C25.031 9.93787 25.1209 10.2147 24.9521 10.3594L19.3955 15.1191C18.8972 15.5461 18.6798 16.2162 18.832 16.8545L20.5293 23.9707C20.5808 24.1868 20.3459 24.3577 20.1562 24.2422L13.9121 20.4287C13.3521 20.0866 12.6479 20.0866 12.0879 20.4287L5.84375 24.2422C5.65406 24.3577 5.41921 24.1868 5.4707 23.9707L7.16797 16.8545C7.32022 16.2162 7.10276 15.5461 6.60449 15.1191L1.04785 10.3594C0.879095 10.2147 0.968962 9.93786 1.19043 9.91992L8.4834 9.33594C9.13744 9.2835 9.7079 8.86945 9.95996 8.26367L12.7695 1.50781Z" fill="white" stroke="#8B2842" stroke-width="1.5"/>
</svg>
