<svg width="30" height="30" viewBox="0 0 30 30" fill="none" xmlns="http://www.w3.org/2000/svg">
<g clip-path="url(#clip0_313_595)">
<path d="M7.98 13.8077C7.98 14.4902 8.2575 15.1202 8.7 15.5777C8.76 15.6377 8.82 15.6902 8.88 15.7427V22.8677H7.0125C5.31 22.8677 3.9375 21.4952 3.9375 19.7927V7.0127C4.1175 7.0877 4.32 7.1327 4.5375 7.1327H10.9275C9.39 7.1627 8.145 8.3477 8.01 9.8552C8.0025 9.9527 7.98 10.0352 7.98 10.1327V13.8077Z" fill="#F77F00"/>
<path d="M10.9254 7.13635C10.9441 7.13635 10.9614 7.1311 10.9801 7.1311H20.2149V5.31535V4.8811C20.2149 3.22435 18.8716 1.8811 17.2149 1.8811H6.03613C4.37938 1.8811 3.03613 3.22435 3.03613 4.8811V5.63635C3.03613 6.25135 3.40738 6.7786 3.93688 7.01035C4.12063 7.0906 4.32238 7.13635 4.53613 7.13635H10.9254Z" fill="#D0D5DA"/>
<path d="M25.1404 14.5127H24.2554V12.2627C24.0754 12.3377 23.8729 12.3827 23.6554 12.3827H14.1979C13.3354 12.3827 12.6379 13.0802 12.6379 13.9427C12.6379 15.2702 11.5279 16.3352 10.1854 16.2677C9.68287 16.2452 9.24037 16.0427 8.88037 15.7427V25.0427C8.88037 26.7452 10.2604 28.1177 11.9554 28.1177H21.1804C22.8829 28.1177 24.2554 26.7452 24.2554 25.0427V24.6377H25.1404C26.6554 24.6377 27.8854 23.4077 27.8854 21.8927V17.2577C27.8854 15.7427 26.6554 14.5127 25.1404 14.5127ZM13.6504 23.3702C13.6504 23.7902 13.3054 24.1352 12.8779 24.1352C12.4579 24.1352 12.1129 23.7902 12.1129 23.3702V18.9677C12.1129 18.5402 12.4579 18.1952 12.8779 18.1952C13.3054 18.1952 13.6504 18.5402 13.6504 18.9677V23.3702ZM17.3404 23.3702C17.3404 23.7902 16.9954 24.1352 16.5679 24.1352C16.1479 24.1352 15.8029 23.7902 15.8029 23.3702V15.8627C15.8029 15.4352 16.1479 15.0902 16.5679 15.0902C16.9954 15.0902 17.3404 15.4352 17.3404 15.8627V23.3702ZM21.0304 23.3702C21.0304 23.7902 20.6854 24.1352 20.2579 24.1352C19.8379 24.1352 19.4929 23.7902 19.4929 23.3702V15.8627C19.4929 15.4352 19.8379 15.0902 20.2579 15.0902C20.6854 15.0902 21.0304 15.4352 21.0304 15.8627V23.3702ZM26.0404 21.8927C26.0404 22.3877 25.6354 22.7927 25.1404 22.7927H24.2554V16.3577H25.1404C25.6354 16.3577 26.0404 16.7627 26.0404 17.2577V21.8927Z" fill="#FFAA00"/>
<path d="M17.3378 15.8625C17.3378 15.438 16.9935 15.0938 16.569 15.0938C16.1445 15.0938 15.8003 15.438 15.8003 15.8625V23.3663C15.8003 23.7908 16.1445 24.135 16.569 24.135C16.9935 24.135 17.3378 23.7908 17.3378 23.3663V15.8625Z" fill="#F77F00"/>
<path d="M20.26 15.0938C19.8355 15.0938 19.4912 15.438 19.4912 15.8625V23.3663C19.4912 23.7908 19.8355 24.135 20.26 24.135C20.6845 24.135 21.0287 23.7908 21.0287 23.3663V15.8625C21.0287 15.438 20.6845 15.0938 20.26 15.0938Z" fill="#F77F00"/>
<path d="M13.6479 18.9667C13.6479 18.5422 13.3036 18.198 12.8791 18.198C12.4546 18.198 12.1104 18.5422 12.1104 18.9667V23.3662C12.1104 23.7907 12.4546 24.135 12.8791 24.135C13.3036 24.135 13.6479 23.7907 13.6479 23.3662V18.9667Z" fill="#F77F00"/>
<path d="M10.9802 7.13037C10.9615 7.13037 10.9442 7.13562 10.9255 7.13562C9.38724 7.16412 8.14524 8.34912 8.00724 9.85812C7.99899 9.94887 7.97949 10.0374 7.97949 10.1304V13.8099C7.97949 14.4864 8.25699 15.1186 8.70324 15.5761C8.76024 15.6346 8.81799 15.6924 8.88099 15.7441C9.24174 16.0449 9.68649 16.2421 10.1845 16.2676C11.5277 16.3381 12.6392 15.2694 12.6392 13.9411C12.6392 13.0816 13.336 12.3856 14.1947 12.3856H23.6582C23.8712 12.3856 24.0737 12.3399 24.2575 12.2596C24.787 12.0279 25.1582 11.5006 25.1582 10.8856V10.1304C25.1582 8.47362 23.815 7.13037 22.1582 7.13037H10.9795H10.9802Z" fill="#EBEBEB"/>
</g>
<defs>
<clipPath id="clip0_313_595">
<rect width="30" height="30" fill="white"/>
</clipPath>
</defs>
</svg>
