<svg width="30" height="30" viewBox="0 0 30 30" fill="none" xmlns="http://www.w3.org/2000/svg">
<path d="M24.1598 6.71763C24.363 6.51436 24.3631 6.18492 24.16 5.9818C23.9569 5.77868 23.6275 5.77879 23.4242 5.98206L3.21118 26.1951C3.00791 26.3983 3.00779 26.7278 3.21092 26.9309C3.41404 27.134 3.74348 27.1339 3.94675 26.9306L24.1598 6.71763Z" fill="#E3B159"/>
<path d="M20.6225 20.8593L9.14082 9.37763C8.57319 8.81001 7.65288 8.81001 7.08526 9.37763L5.65124 10.8116C5.08362 11.3793 5.08362 12.2996 5.65125 12.8672L17.1329 24.3489C17.7005 24.9165 18.6208 24.9165 19.1885 24.3489L20.6225 22.9148C21.1901 22.3472 21.1901 21.4269 20.6225 20.8593Z" fill="#C35231"/>
<path d="M24.3485 17.1334L12.8669 5.6518C12.2993 5.08418 11.379 5.08418 10.8113 5.6518L9.37732 7.08582C8.80969 7.65344 8.80969 8.57375 9.37732 9.14138L20.859 20.623C21.4266 21.1906 22.3469 21.1906 22.9145 20.623L24.3485 19.189C24.9162 18.6214 24.9162 17.7011 24.3485 17.1334Z" fill="#C35231"/>
<path d="M28.0736 13.4079L16.592 1.92622C16.0244 1.35859 15.1041 1.35859 14.5364 1.92622L13.1024 3.36023C12.5348 3.92786 12.5348 4.84816 13.1024 5.41579L24.5841 16.8974C25.1517 17.4651 26.072 17.4651 26.6396 16.8974L28.0736 15.4634C28.6413 14.8958 28.6413 13.9755 28.0736 13.4079Z" fill="#C35231"/>
<path d="M16.8966 24.5846L5.41499 13.103C4.84736 12.5353 3.92705 12.5353 3.35943 13.103L1.92541 14.537C1.35779 15.1046 1.35779 16.0249 1.92541 16.5925L13.4071 28.0742C13.9747 28.6418 14.895 28.6418 15.4626 28.0742L16.8966 26.6402C17.4643 26.0726 17.4643 25.1522 16.8966 24.5846Z" fill="#C35231"/>
<path d="M7.08515 9.37723L5.65115 10.8112C5.0834 11.379 5.0834 12.2992 5.65115 12.867L10.3754 17.5912C12.3599 18.657 14.8604 18.4035 16.6012 16.8375L9.1409 9.37723C8.57315 8.80948 7.6529 8.80948 7.08515 9.37723Z" fill="#C35231"/>
<path d="M10.8112 5.6514L9.37723 7.0854C8.80948 7.65315 8.80948 8.5734 9.37723 9.1404L16.8502 16.6134C18.3007 15.1831 20.2867 14.6274 22.1572 14.9416L12.867 5.6514C12.2992 5.08365 11.379 5.08365 10.812 5.6514H10.8112Z" fill="#C35231"/>
<path d="M28.4736 14.7121C28.5621 14.2538 28.4293 13.7618 28.0746 13.4071L16.5921 1.92606C16.0243 1.35831 15.1041 1.35831 14.5363 1.92606L13.1023 3.36006C12.5346 3.92781 12.5346 4.84806 13.1023 5.41581L22.7736 15.0871C22.8673 15.1133 22.9626 15.1283 23.0556 15.1591C23.0556 15.1591 26.1523 15.8558 28.4728 14.7136L28.4736 14.7121Z" fill="#C35231"/>
<path d="M3.35981 13.1033L1.92581 14.5373C1.35806 15.1051 1.35806 16.0253 1.92581 16.5923L2.71631 17.3828C2.95331 17.0003 3.25931 16.6478 3.63431 16.3448C5.01506 15.2273 6.99431 15.2041 8.45531 16.1431L5.41556 13.1033C4.84781 12.5356 3.92681 12.5356 3.35981 13.1033Z" fill="#C35231"/>
</svg>
