<svg width="32" height="32" viewBox="0 0 32 32" fill="none" xmlns="http://www.w3.org/2000/svg">
<g clip-path="url(#clip0_234_417)">
<path d="M26.7839 23.657H2.3999V27.473C2.3999 28.357 3.1167 29.0738 4.0007 29.0738H26.7839V23.657Z" fill="#FFD06C"/>
<path d="M26.7839 20.4544V17.5088C26.7839 16.144 25.6775 15.0376 24.3127 15.0376H2.7775C2.5399 15.4912 2.3999 15.9936 2.3999 16.5176V20.4544H26.7839Z" fill="#FFD06C"/>
<path d="M18.9359 3.0161C17.7199 2.7601 16.4559 3.0801 15.5119 3.8801L3.5279 14.0801C3.2079 14.3521 2.9679 14.6801 2.7759 15.0401H24.3119C25.6799 15.0401 26.7839 16.1441 26.7839 17.5121V20.4561H2.3999V23.6561H26.7839V29.0721H27.9999C28.8799 29.0721 29.5999 28.3601 29.5999 27.4721V15.0401C29.5999 15.0401 28.7279 5.0641 18.9359 3.0161ZM18.7439 12.1441C16.9439 12.1441 15.4879 10.6801 15.4879 8.88011C15.4879 7.08011 16.9439 4.9521 18.7439 4.9521C20.5439 4.9521 21.9999 7.08011 21.9999 8.88011C21.9999 10.6801 20.5439 12.1441 18.7439 12.1441Z" fill="#E5E5E5"/>
<path d="M18.744 12.1417C20.544 12.1417 22.0032 10.6825 22.0032 8.88251C22.0032 7.08251 20.544 4.94971 18.744 4.94971C16.944 4.94971 15.4856 7.08331 15.4856 8.88251C15.4856 10.6817 16.9448 12.1417 18.744 12.1417Z" fill="#EF4452"/>
</g>
<defs>
<clipPath id="clip0_234_417">
<rect width="32" height="32" fill="white"/>
</clipPath>
</defs>
</svg>
