<svg width="36" height="40" viewBox="0 0 36 40" fill="none" xmlns="http://www.w3.org/2000/svg">
<path d="M17.9999 37.0561C24.4343 37.0561 29.6504 33.6991 29.6504 29.5581C29.6504 25.417 24.4343 22.0601 17.9999 22.0601C11.5655 22.0601 6.34937 25.417 6.34937 29.5581C6.34937 33.6991 11.5655 37.0561 17.9999 37.0561Z" fill="#BABABA"/>
<path d="M17.9999 34.7201C27.192 34.7201 34.6436 29.9242 34.6436 24.0081C34.6436 18.0921 27.192 13.2961 17.9999 13.2961C8.80784 13.2961 1.3562 18.0921 1.3562 24.0081C1.3562 29.9242 8.80784 34.7201 17.9999 34.7201Z" fill="#D9D9D9"/>
<path d="M17.9998 32.8732C24.9353 32.8732 30.5575 29.2548 30.5575 24.7912C30.5575 20.3277 24.9353 16.7092 17.9998 16.7092C11.0644 16.7092 5.44214 20.3277 5.44214 24.7912C5.44214 29.2548 11.0644 32.8732 17.9998 32.8732Z" fill="#542B00"/>
<path d="M23.8554 29.0931C23.6565 29.0931 23.4756 28.946 23.4216 28.723C22.4982 24.895 18.9423 22.6101 15.498 23.64C15.2595 23.707 15.0111 23.553 14.9472 23.286C14.8833 23.019 15.0255 22.7461 15.2658 22.6741C19.1889 21.5101 23.2398 24.1041 24.2919 28.4641C24.3558 28.7321 24.2136 29.005 23.9733 29.077C23.9346 29.088 23.895 29.094 23.8563 29.094L23.8554 29.0931Z" fill="#F9E1AD"/>
<path d="M22.5188 29.4909C22.3199 29.4909 22.1381 29.3439 22.085 29.1209C21.734 27.6649 20.8916 26.4469 19.7144 25.6909C18.5363 24.9359 17.1656 24.7319 15.8561 25.1249C15.6176 25.1919 15.3692 25.0369 15.3053 24.7709C15.2414 24.5029 15.3836 24.2299 15.6239 24.1579C17.1656 23.7019 18.7784 23.9349 20.1644 24.8249C21.5504 25.7149 22.5413 27.1479 22.9544 28.8609C23.0183 29.1289 22.8761 29.4019 22.6358 29.4739C22.5971 29.4849 22.5575 29.4909 22.5188 29.4909Z" fill="#F9E1AD"/>
<path d="M21.1823 29.8891C20.9834 29.8891 20.8016 29.7421 20.7485 29.5181C20.2211 27.3291 18.1907 26.0201 16.2143 26.6111C15.974 26.6761 15.7274 26.5241 15.6635 26.2571C15.5996 25.9901 15.7418 25.7171 15.9821 25.6451C18.4337 24.9181 20.9618 26.5371 21.6179 29.2611C21.6818 29.5281 21.5396 29.8011 21.2993 29.8731C21.2606 29.8841 21.221 29.8891 21.1823 29.8891Z" fill="#F9E1AD"/>
<path d="M9.56598 24.1251C9.48948 24.1251 9.41208 24.1041 9.34098 24.0581C9.12588 23.9201 9.05208 23.6151 9.17628 23.3751C11.0465 19.7771 15.2009 18.5381 18.44 20.6171C18.6551 20.7551 18.7289 21.0601 18.6047 21.3001C18.4805 21.5401 18.2042 21.6201 17.99 21.4831C15.1811 19.6831 11.5766 20.7561 9.95568 23.8761C9.87198 24.0361 9.72078 24.1261 9.56508 24.1261L9.56598 24.1251Z" fill="#F9E1AD"/>
<path d="M10.6631 24.8291C10.5866 24.8291 10.5092 24.8081 10.4381 24.7621C10.223 24.6241 10.1492 24.3191 10.2734 24.0791C11.7953 21.1531 15.1757 20.1461 17.8082 21.8361C18.0233 21.9741 18.0971 22.2791 17.9729 22.5191C17.8478 22.7571 17.5724 22.8401 17.3582 22.7021C15.155 21.2891 12.3272 22.1311 11.0537 24.5801C10.97 24.7401 10.8188 24.8291 10.6631 24.8291Z" fill="#F9E1AD"/>
<path d="M12.0193 25.0962C11.9248 25.0962 11.8294 25.0632 11.7484 24.9952C11.5495 24.8282 11.5108 24.5152 11.6602 24.2942C12.949 22.3982 15.3205 21.8652 17.1736 23.0552C17.3887 23.1932 17.4625 23.4982 17.3383 23.7382C17.2132 23.9762 16.9378 24.0582 16.7236 23.9212C15.2611 22.9842 13.3936 23.4042 12.3784 24.8992C12.2902 25.0292 12.1552 25.0962 12.0193 25.0962Z" fill="#F9E1AD"/>
<path d="M27.6641 25.8652C27.5084 25.8652 27.3572 25.7752 27.2735 25.6152C26.4095 23.9522 25.0145 22.7622 23.345 22.2652C21.6755 21.7682 19.9331 22.0242 18.4355 22.9832C18.2204 23.1212 17.945 23.0392 17.8208 22.8002C17.6966 22.5612 17.7704 22.2552 17.9855 22.1172C19.691 21.0242 21.6755 20.7322 23.5772 21.2992C25.4789 21.8652 27.0674 23.2202 28.052 25.1142C28.1762 25.3532 28.1024 25.6592 27.8873 25.7972C27.8162 25.8432 27.7388 25.8642 27.6623 25.8642L27.6641 25.8652Z" fill="#F9E1AD"/>
<path d="M26.4653 26.6341C26.3096 26.6341 26.1584 26.5441 26.0747 26.3841C25.397 25.0791 24.2999 24.1461 22.9859 23.7541C21.6719 23.3631 20.3021 23.5631 19.1276 24.3161C18.9116 24.4541 18.6371 24.3731 18.5129 24.1331C18.3887 23.8941 18.4625 23.5881 18.6776 23.4501C20.0591 22.5621 21.6719 22.3251 23.219 22.7881C24.7643 23.2481 26.0558 24.3481 26.8541 25.8841C26.9783 26.1231 26.9045 26.4291 26.6894 26.5671C26.6183 26.6131 26.5418 26.6341 26.4653 26.6341Z" fill="#F9E1AD"/>
<path d="M25.2674 27.4032C25.1117 27.4032 24.9605 27.3132 24.8768 27.1532C24.218 25.8832 22.9886 25.0972 21.6665 25.0972C21.6611 25.0972 21.6566 25.1063 21.6485 25.0972C21.401 25.0972 21.1994 24.8743 21.1985 24.5993C21.1985 24.3163 21.41 24.0923 21.6665 24.0973C23.3099 24.0973 24.8372 25.0752 25.6571 26.6532C25.7813 26.8922 25.7075 27.1983 25.4924 27.3363C25.4213 27.3823 25.3439 27.4032 25.2674 27.4032Z" fill="#F9E1AD"/>
<path d="M17.7884 28.9411C17.6327 28.9411 17.4815 28.8511 17.3978 28.6911C16.5338 27.0281 15.1388 25.8381 13.4693 25.3411C11.7998 24.8431 10.0565 25.1001 8.55977 26.0591C8.34467 26.1971 8.06928 26.1151 7.94508 25.8761C7.82088 25.6371 7.89467 25.3311 8.10977 25.1931C9.81437 24.0991 11.7998 23.8081 13.7015 24.3751C15.6032 24.9411 17.1917 26.2961 18.1763 28.1901C18.3005 28.4291 18.2267 28.7351 18.0116 28.8731C17.9405 28.9191 17.8631 28.9401 17.7866 28.9401L17.7884 28.9411Z" fill="#F9E1AD"/>
<path d="M16.5906 29.7101C16.4349 29.7101 16.2837 29.6201 16.2 29.4601C15.5223 28.1551 14.4252 27.2221 13.1112 26.8301C11.7972 26.4381 10.4274 26.6391 9.25289 27.3921C9.03779 27.5301 8.76239 27.4481 8.63819 27.2091C8.51399 26.9701 8.58779 26.6641 8.80289 26.5261C10.1844 25.6371 11.7972 25.4021 13.3443 25.8641C14.8896 26.3241 16.1811 27.4241 16.9794 28.9601C17.1036 29.1991 17.0298 29.5051 16.8147 29.6431C16.7436 29.6891 16.6671 29.7101 16.5906 29.7101Z" fill="#F9E1AD"/>
<path d="M13.8904 28.8041C13.8139 28.8041 13.7356 28.7831 13.6645 28.7371C12.5152 27.9931 11.0905 27.9891 9.94479 28.7231C9.72969 28.8621 9.45428 28.7791 9.33008 28.5401C9.20588 28.3011 9.27969 27.9951 9.49479 27.8571C10.9195 26.9421 12.6907 26.9481 14.1172 27.8711C14.3323 28.0111 14.4052 28.3161 14.2801 28.5561C14.1964 28.7151 14.0461 28.8041 13.8904 28.8041Z" fill="#F9E1AD"/>
<ellipse cx="16.5001" cy="24.3333" rx="0.9" ry="1" fill="#87DC84"/>
<ellipse cx="18.2999" cy="21.6667" rx="0.9" ry="1" fill="#87DC84"/>
<ellipse cx="20.1" cy="24.3333" rx="0.9" ry="1" fill="#87DC84"/>
</svg>
