<svg width="30" height="30" viewBox="0 0 30 30" fill="none" xmlns="http://www.w3.org/2000/svg">
<path d="M15.0001 24.447C8.88834 24.447 3.82584 21.8753 2.83059 18.4995C2.81109 18.6623 2.78784 18.8243 2.78784 18.99C2.78784 19.0215 2.79534 19.0515 2.79609 19.0823C2.88234 22.9463 8.30934 26.064 15.0001 26.064C21.6908 26.064 27.1178 22.9463 27.2041 19.0823C27.2041 19.0515 27.2123 19.0215 27.2123 18.99C27.2123 18.8243 27.1891 18.6623 27.1696 18.4995C26.1743 21.8753 21.1118 24.447 15.0001 24.447Z" fill="#179614"/>
<path d="M26.8851 17.658L16.3221 23.364C15.5136 23.8005 14.5394 23.8005 13.7309 23.364L3.11389 17.6288C2.92264 17.5253 2.77339 17.388 2.64439 17.238C2.64439 17.2553 2.63989 17.271 2.63989 17.2883C2.63989 17.7023 2.71339 18.105 2.82964 18.4995C3.82489 21.8753 8.88739 24.447 14.9991 24.447C21.1109 24.447 26.1734 21.8753 27.1686 18.4995C27.2849 18.105 27.3584 17.7023 27.3584 17.2883C27.3584 17.2808 27.3561 17.2725 27.3561 17.265C27.2264 17.4158 27.0779 17.5538 26.8851 17.658Z" fill="#6E452C"/>
<path d="M26.7991 14.649L26.7369 14.6198C25.5219 18.306 20.7331 20.655 15.0001 20.655C9.26711 20.655 4.45361 18.2948 3.25361 14.5935L3.17861 14.6303C2.14061 15.1358 1.96061 16.4445 2.64536 17.238C2.77436 17.3873 2.92361 17.5253 3.11486 17.6288L13.7319 23.364C14.5404 23.8005 15.5146 23.8005 16.3231 23.364L26.8861 17.658C27.0789 17.5538 27.2289 17.4158 27.3579 17.265C28.0456 16.4648 27.8544 15.1433 26.7999 14.649H26.7991Z" fill="#FFD16B"/>
<path d="M15.0001 20.655C20.7339 20.655 25.5226 18.3052 26.7369 14.6197C26.7691 14.5215 26.8006 14.4232 26.8276 14.3235C24.7951 16.9365 20.2689 18.759 15.0001 18.759C9.73136 18.759 5.20511 16.9372 3.17261 14.3235C3.19736 14.415 3.22436 14.5042 3.25361 14.5942C4.45436 18.2955 9.25286 20.655 15.0001 20.655Z" fill="#ED0000"/>
<path d="M14.9999 26.0633C8.30913 26.0633 2.88213 22.9455 2.79588 19.0815C2.70363 19.5053 2.64062 19.9388 2.64062 20.3918C2.64062 25.2593 8.17413 28.5 14.9999 28.5C21.8256 28.5 27.3591 25.26 27.3591 20.3918C27.3591 19.9388 27.2961 19.5053 27.2039 19.0815C27.1176 22.9455 21.6906 26.0633 14.9999 26.0633Z" fill="#FF9E26"/>
<path d="M15 18.7583C20.2687 18.7583 24.795 16.9365 26.8275 14.3228C27.5595 13.3815 27.9772 12.3405 27.9772 11.241C27.9772 7.08977 23.259 1.49927 15 1.49927C6.74095 1.49927 2.02271 7.08977 2.02271 11.2418C2.02271 12.3413 2.43971 13.3823 3.17246 14.3235C5.20496 16.9365 9.7312 18.7583 15 18.7583ZM20.1877 5.67977C20.3737 5.45552 20.7067 5.42477 20.9302 5.61077C21.1545 5.79677 21.1852 6.12977 20.9992 6.35327C20.8807 6.49577 20.4585 6.66977 20.1675 6.77702C20.0355 6.82577 19.8997 6.71327 19.9237 6.57452C19.9762 6.26852 20.0692 5.82227 20.1877 5.67977ZM16.4872 8.84477C16.6297 8.72627 17.0767 8.63327 17.3827 8.58077C17.5215 8.55677 17.634 8.69252 17.5852 8.82452C17.478 9.11552 17.304 9.53777 17.1615 9.65627C16.9372 9.84227 16.605 9.81152 16.419 9.58727C16.233 9.36302 16.263 9.03077 16.4872 8.84477ZM13.9162 3.87527C14.1007 3.85802 14.5222 4.03352 14.8042 4.16402C14.9325 4.22327 14.9482 4.39802 14.8335 4.47977C14.58 4.65902 14.1982 4.90952 14.0137 4.92602C13.7235 4.95302 13.467 4.73927 13.44 4.44902C13.413 4.15877 13.626 3.90227 13.9162 3.87527ZM12.054 7.77302C12.36 7.82552 12.807 7.91852 12.9495 8.03702C13.1737 8.22302 13.2045 8.55602 13.0185 8.77952C12.8325 9.00377 12.4995 9.03452 12.276 8.84852C12.1335 8.73002 11.9595 8.30852 11.8522 8.01677C11.8035 7.88477 11.9152 7.74902 12.054 7.77302ZM8.5522 6.22877C8.6707 6.08627 9.09296 5.91227 9.38396 5.80502C9.51596 5.75627 9.6517 5.86877 9.6277 6.00752C9.5752 6.31352 9.48221 6.76052 9.36371 6.90302C9.17771 7.12727 8.84471 7.15802 8.62121 6.97202C8.39696 6.78602 8.3662 6.45227 8.5522 6.22877Z" fill="#FF9E26"/>
<path d="M17.1615 9.6564C17.304 9.5379 17.478 9.1164 17.5852 8.82465C17.634 8.69265 17.5215 8.5569 17.3827 8.5809C17.0767 8.6334 16.6297 8.7264 16.4872 8.8449C16.263 9.0309 16.2322 9.3639 16.4182 9.5874C16.6042 9.81165 16.938 9.8424 17.1615 9.6564Z" fill="#FFD16B"/>
<path d="M12.2752 8.84791C12.4994 9.03391 12.8317 9.00316 13.0177 8.77891C13.2037 8.55466 13.1729 8.22241 12.9487 8.03641C12.8062 7.91791 12.3592 7.82491 12.0532 7.77241C11.9144 7.74916 11.8019 7.88415 11.8507 8.01615C11.9579 8.30715 12.1319 8.72941 12.2744 8.84791H12.2752Z" fill="#FFD16B"/>
<path d="M20.1682 6.77785C20.4592 6.6706 20.8814 6.4966 20.9999 6.3541C21.1859 6.12985 21.1552 5.7976 20.9309 5.6116C20.7067 5.4256 20.3744 5.45635 20.1884 5.6806C20.0699 5.8231 19.9769 6.2701 19.9244 6.5761C19.9004 6.71485 20.0362 6.82735 20.1682 6.7786V6.77785Z" fill="#FFD16B"/>
<path d="M14.013 4.92537C14.1975 4.90812 14.5792 4.65837 14.8327 4.47912C14.9475 4.39737 14.9317 4.22187 14.8035 4.16337C14.5215 4.03362 14.1 3.85812 13.9155 3.87462C13.6252 3.90162 13.4122 4.15812 13.4385 4.44837C13.4655 4.73862 13.7227 4.95162 14.013 4.92537Z" fill="#FFD16B"/>
<path d="M9.36451 6.9023C9.48301 6.7598 9.57601 6.3128 9.62851 6.0068C9.65251 5.86805 9.51676 5.75555 9.38476 5.8043C9.09376 5.91155 8.67151 6.08555 8.55301 6.22805C8.36701 6.4523 8.39776 6.78455 8.62201 6.97055C8.84626 7.15655 9.17851 7.1258 9.36451 6.90155V6.9023Z" fill="#FFD16B"/>
</svg>
