<svg width="32" height="32" viewBox="0 0 32 32" fill="none" xmlns="http://www.w3.org/2000/svg">
<g clip-path="url(#clip0_234_504)">
<path d="M3.96866 15.1136C4.04226 16.4568 4.77186 17.7008 5.96546 18.7512C5.88146 18.4448 5.82546 18.1328 5.82546 17.8128C5.82546 16.1352 7.03026 14.624 8.95746 13.5464C9.24786 13.2312 9.61666 12.9832 10.0599 12.8648C10.1359 12.8448 10.2127 12.84 10.2887 12.828C10.4975 11.756 11.2903 10.8416 12.4119 10.5408C13.7159 10.1912 15.0383 10.7888 15.6903 11.9024C15.7943 11.9008 15.8959 11.8936 16.0007 11.8936C21.6199 11.8936 26.1759 14.544 26.1759 17.8136C26.1759 18.1336 26.1199 18.4456 26.0359 18.752C27.2287 17.7016 27.9591 16.4576 28.0327 15.1144C28.0367 15.0392 28.0519 14.9656 28.0519 14.8896C28.0519 13.7072 27.5439 12.5952 26.6559 11.6184C24.6351 9.39522 20.6247 7.87842 16.0007 7.87842C11.3767 7.87842 7.36626 9.39522 5.34546 11.6184C4.45746 12.5952 3.94946 13.708 3.94946 14.8896C3.94946 14.9656 3.96466 15.0384 3.96866 15.1136Z" fill="#3D3D3D"/>
<path d="M26.175 17.8128C26.175 14.5432 21.6198 11.8928 15.9998 11.8928C15.895 11.8928 15.7934 11.9 15.6894 11.9016C15.8214 12.1264 15.935 12.3648 16.0054 12.6296C16.0078 12.6392 16.0094 12.6488 16.0118 12.6584C16.1014 12.6224 16.1886 12.5808 16.2846 12.5552C17.5798 12.208 18.9102 12.9816 19.2558 14.2824C19.2582 14.2912 19.2606 14.3008 19.263 14.3104C19.3814 14.8088 18.9854 15.2856 18.475 15.2856H9.27264C8.70464 15.2856 8.29344 14.7008 8.52464 14.18C8.62944 13.9448 8.78224 13.736 8.95744 13.5456C7.03024 14.6224 5.82544 16.1344 5.82544 17.812C5.82544 18.132 5.88144 18.444 5.96544 18.7504C8.11904 20.6456 11.8014 21.8992 16.0006 21.8992C20.1998 21.8992 23.8822 20.6456 26.0358 18.7504C26.1198 18.444 26.1758 18.132 26.1758 17.812L26.175 17.8128ZM9.86864 17.8032C10.1206 17.1864 10.7246 16.7528 11.4294 16.7528C12.1342 16.7528 12.7382 17.1864 12.9902 17.8032C13.1166 18.1112 12.8654 18.4472 12.5334 18.4472H10.3246C9.99264 18.4472 9.74144 18.1112 9.86784 17.8032H9.86864ZM19.5358 19.9144H15.4406C14.8646 19.9144 14.4822 19.3264 14.6958 18.7904C15.1398 17.6792 16.2222 16.8936 17.4878 16.8936C18.7534 16.8936 19.8358 17.6784 20.2798 18.7904C20.4942 19.3272 20.1118 19.9144 19.5358 19.9144ZM20.7798 16.1856C20.4478 16.1856 20.1966 15.8496 20.323 15.5416C20.575 14.9248 21.179 14.4912 21.8838 14.4912C22.5886 14.4912 23.1926 14.9248 23.4446 15.5416C23.571 15.8496 23.3198 16.1856 22.9878 16.1856H20.7798Z" fill="#FFAD00"/>
<path d="M9.27189 15.2864H18.4743C18.9847 15.2864 19.3807 14.8096 19.2623 14.3112C19.2599 14.3016 19.2575 14.292 19.2551 14.2832C18.9095 12.9824 17.5791 12.2088 16.2839 12.556C16.1879 12.5816 16.1015 12.6232 16.0111 12.6592C16.0087 12.6496 16.0079 12.64 16.0047 12.6304C15.9343 12.3656 15.8199 12.1272 15.6887 11.9024C15.0367 10.7888 13.7143 10.1912 12.4103 10.5408C11.2887 10.8416 10.4959 11.756 10.2871 12.828C10.2103 12.8408 10.1343 12.8448 10.0583 12.8648C9.61509 12.984 9.24629 13.232 8.95589 13.5464C8.78069 13.7368 8.62709 13.9448 8.52309 14.1808C8.29189 14.7016 8.70309 15.2864 9.27109 15.2864H9.27189Z" fill="#037F56"/>
<path d="M23.4454 15.5416C23.1934 14.9248 22.5894 14.4912 21.8846 14.4912C21.1798 14.4912 20.5758 14.9248 20.3238 15.5416C20.1974 15.8496 20.4486 16.1856 20.7806 16.1856H22.9894C23.3214 16.1856 23.5726 15.8496 23.4462 15.5416H23.4454Z" fill="#F77F00"/>
<path d="M12.9911 17.8033C12.7391 17.1865 12.1351 16.7529 11.4303 16.7529C10.7255 16.7529 10.1215 17.1865 9.86947 17.8033C9.74307 18.1113 9.99427 18.4473 10.3263 18.4473H12.5351C12.8671 18.4473 13.1175 18.1113 12.9911 17.8033Z" fill="#F77F00"/>
<path d="M30.7998 14.8886C30.7998 13.0822 29.3414 11.6174 27.543 11.6174H26.655C27.543 12.5942 28.051 13.707 28.051 14.8886C28.051 14.9646 28.0358 15.0382 28.0318 15.1134C28.0438 15.0822 28.051 15.063 28.051 15.063V18.1094C29.607 17.863 30.7998 16.5206 30.7998 14.8886Z" fill="#C50010"/>
<path d="M3.96868 15.1134C3.96468 15.0382 3.94948 14.9646 3.94948 14.8886C3.94948 13.7062 4.45748 12.5942 5.34548 11.6174H4.45748C2.65908 11.6174 1.20068 13.0822 1.20068 14.8886C1.20068 16.5206 2.39348 17.8622 3.94948 18.1086V15.0622C3.94948 15.0622 3.95668 15.083 3.96868 15.1134Z" fill="#C50010"/>
<path d="M20.2807 18.7901C19.8367 17.6789 18.7543 16.8933 17.4887 16.8933C16.2231 16.8933 15.1407 17.6781 14.6967 18.7901C14.4823 19.3269 14.8655 19.9141 15.4415 19.9141H19.5367C20.1127 19.9141 20.4943 19.3261 20.2807 18.7901Z" fill="#C50010"/>
<path d="M28.0312 15.1134C27.9576 16.4566 27.228 17.7006 26.0344 18.751C23.8808 20.6462 20.1984 21.8998 15.9992 21.8998C11.8 21.8998 8.1176 20.6462 5.964 18.751C4.7712 17.7006 4.0408 16.4566 3.9672 15.1134C3.9552 15.0822 3.948 15.063 3.948 15.063V18.1654C3.948 24.8502 9.3432 30.2702 15.9992 30.2702C22.6552 30.2702 28.0504 24.851 28.0504 18.1654V15.063C28.0504 15.063 28.0432 15.083 28.0312 15.1134Z" fill="#C50010"/>
<path d="M20.6321 7.17592C19.8801 7.31192 19.1601 7.01592 18.6961 6.47192C18.5281 6.54392 18.3521 6.59992 18.1681 6.63192C16.8321 6.86392 15.5601 5.95992 15.3281 4.61592C15.0961 3.27192 15.9921 1.99992 17.3281 1.76792C18.4081 1.58392 19.4321 2.13592 19.9121 3.05592H19.9201C21.0561 2.85592 22.1361 3.62392 22.3281 4.75992C22.5281 5.89592 21.7601 6.98392 20.6321 7.17592Z" fill="#D5D5D5"/>
<path d="M11.4072 7.12947C12.3824 7.12947 13.1728 6.33588 13.1728 5.35588C13.1728 4.37588 12.3824 3.58228 11.4072 3.58228C10.432 3.58228 9.6416 4.37588 9.6416 5.35588C9.6416 6.33588 10.432 7.12947 11.4072 7.12947Z" fill="#D5D5D5"/>
</g>
<defs>
<clipPath id="clip0_234_504">
<rect width="32" height="32" fill="white"/>
</clipPath>
</defs>
</svg>
