<svg width="38" height="38" viewBox="0 0 38 38" fill="none" xmlns="http://www.w3.org/2000/svg">
<path d="M18.6566 17.7558C18.5087 17.7457 18.3655 17.7309 18.2207 17.7166C18.2679 17.767 18.3151 17.8226 18.3623 17.8762C18.4567 17.8295 18.5564 17.7935 18.6566 17.7558Z" fill="#FF9C00"/>
<path d="M27.9793 13.9028C29.1752 14.7116 29.9612 16.0798 29.9612 17.6316C29.9612 18.6562 29.6048 19.5906 29.0278 20.3469C30.0259 19.3679 30.6288 18.2378 30.6957 17.0275C30.6994 16.9528 30.7153 16.8796 30.7153 16.8043C30.7153 15.2854 29.8684 13.8848 28.446 12.7393C28.4206 12.8549 28.393 12.9726 28.3506 13.0999C28.2572 13.381 28.1278 13.6472 27.9793 13.9028Z" fill="#FF9C00"/>
<path d="M7.65652 19.6013C7.66819 19.5674 7.66978 19.5329 7.68251 19.499C7.77214 19.2524 7.8904 19.0249 8.0251 18.8117C7.57591 17.5723 6.83292 14.9763 8.17147 14.2413C8.31732 14.1612 8.47323 14.1167 8.6318 14.0864C8.6387 13.5651 8.77764 13.0772 9.01523 12.6498C7.52394 13.8112 6.63087 15.2452 6.63087 16.8033C6.63087 16.8786 6.64624 16.9523 6.65049 17.0266C6.70034 17.9398 7.05725 18.808 7.65652 19.6003L7.65652 19.6013Z" fill="#FF9C00"/>
<path d="M25.4789 7.10695C23.7304 6.69065 21.608 8.89682 21.608 8.89682C21.608 8.89682 21.3169 7.39864 19.1526 7.73115C18.2203 7.87434 17.5982 8.51233 17.1904 9.19062C17.6831 8.84432 18.2707 8.62688 18.9187 8.62688C20.6062 8.62688 21.974 9.9946 21.974 11.6821C21.974 11.7415 21.9596 11.7961 21.9565 11.8545C23.4605 12.0868 24.711 12.5492 25.5357 13.1405C26.4393 13.1554 27.2799 13.4295 27.9789 13.9026C28.1274 13.647 28.2562 13.3802 28.3496 13.0992C28.392 12.9719 28.4196 12.8541 28.445 12.7385C28.916 10.5769 26.5613 10.3107 26.5613 10.3107C26.5613 10.3107 27.2263 7.5222 25.4778 7.10589L25.4789 7.10695Z" fill="#036D50"/>
<path d="M12.2317 17.3778C13.0219 17.6652 13.6456 18.2051 14.0508 18.8722C14.6076 18.7004 15.2186 18.6919 15.8078 18.9067C16.18 19.0425 16.502 19.253 16.7708 19.5113C17.1002 18.8012 17.6618 18.2215 18.3624 17.8763C18.3152 17.8227 18.268 17.767 18.2208 17.7167C17.6973 17.1572 17.167 16.7647 16.6505 16.4974C16.4038 16.8522 16.0819 17.1465 15.6746 17.3269C14.3255 17.924 12.6677 17.1338 11.9719 15.5609C11.9602 15.5343 11.9507 15.5057 11.9395 15.4787C11.0708 14.7648 9.72858 13.8776 8.63133 14.086C8.47276 14.1162 8.31684 14.1608 8.171 14.2409C6.83245 14.9759 7.57544 17.5719 8.02463 18.8113C8.89809 17.434 10.636 16.7971 12.2312 17.3772L12.2317 17.3778Z" fill="#036D50"/>
<path d="M15.6752 17.3273C16.0825 17.147 16.4044 16.8527 16.651 16.4979C17.2217 15.677 17.3442 14.497 16.8584 13.3992C16.1626 11.8273 14.2195 10.3922 12.8703 10.9894C11.544 11.5764 11.2878 13.9062 11.9401 15.4791C11.9513 15.5062 11.9608 15.5348 11.9725 15.5613C12.6683 17.1332 14.3266 17.924 15.6752 17.3273ZM12.8629 15.1673C12.4938 14.3326 12.8708 13.3562 13.7056 12.9871C14.5398 12.6175 15.5167 12.9951 15.8858 13.8298C16.2549 14.6646 15.8778 15.6409 15.0431 16.01C14.2083 16.3791 13.232 16.002 12.8624 15.1678L12.8629 15.1673Z" fill="#FFFEFA"/>
<path d="M20.9658 17.6316C20.9658 17.6613 20.9743 17.6878 20.9748 17.717C21.3174 17.8379 21.6345 18.0119 21.9193 18.2277C22.1076 18.0766 22.3086 17.9403 22.5207 17.8215C22.5165 17.7578 22.5016 17.6963 22.5016 17.6316C22.5022 15.9956 23.8285 14.6692 25.4641 14.6692C27.0996 14.6692 28.426 15.9956 28.4265 17.6316C28.4265 18.111 28.3019 18.557 28.0993 18.958C28.4519 19.4082 28.7145 19.9242 28.8698 20.4912C28.9218 20.4424 28.978 20.3957 29.0284 20.3464C29.6054 19.5901 29.9623 18.6562 29.9618 17.6311C29.9618 16.0793 29.1758 14.7111 27.9799 13.9023C27.2815 13.4298 26.4404 13.1551 25.5367 13.1403C25.5118 13.1397 25.489 13.1328 25.4646 13.1328C22.9805 13.1328 20.9669 15.1465 20.9669 17.6306L20.9658 17.6316Z" fill="#D12030"/>
<path d="M28.0991 18.9581C28.3011 18.5577 28.4263 18.1111 28.4263 17.6317C28.4263 15.9962 27.0999 14.6698 25.4639 14.6693C23.8278 14.6698 22.5014 15.9962 22.5014 17.6317C22.5014 17.6964 22.5168 17.7574 22.5205 17.8216C23.1532 17.4657 23.883 17.2621 24.6604 17.2621C26.0626 17.2621 27.2978 17.9329 28.0991 18.9581Z" fill="#F56570"/>
<path d="M25.4629 13.1303C25.4894 13.1356 25.5159 13.1409 25.5371 13.1409C24.7098 12.5469 23.4635 12.0856 21.9574 11.8522C21.9574 11.7992 21.9733 11.7408 21.9786 11.6825C21.9733 9.99075 20.605 8.6225 18.9186 8.6225C18.2716 8.6225 17.6829 8.83994 17.195 9.18996C17.1049 9.24829 17.02 9.30132 16.9458 9.36496C16.5056 8.22475 15.4025 7.41865 14.1032 7.41335C12.4167 7.41335 11.0485 8.7816 11.0485 10.4681C11.0538 10.6961 11.0803 10.9135 11.1227 11.1257C10.2106 11.2954 9.4469 11.8681 9.01733 12.6477C8.77868 13.0773 8.6408 13.5652 8.63019 14.0849C9.72797 13.8781 11.0697 14.7637 11.9448 15.4797C11.2871 13.9099 11.5417 11.5764 12.8728 10.9878C14.2199 10.3938 16.1609 11.8257 16.8556 13.4008C17.3435 14.4933 17.2215 15.6759 16.6541 16.4979C17.1685 16.7684 17.6988 17.1608 18.2239 17.7177C18.3671 17.7336 18.5102 17.7495 18.6534 17.7548C18.558 17.7972 18.4572 17.8343 18.3617 17.8768C17.6617 18.2162 17.0996 18.7995 16.7708 19.5102C16.5003 19.2503 16.1768 19.0435 15.8056 18.9056C15.2169 18.6882 14.607 18.7041 14.0502 18.8685C13.6418 18.2056 13.0266 17.6646 12.2311 17.3783C10.6348 16.8002 8.90066 17.4313 8.02562 18.8154C7.89303 19.0223 7.77106 19.2503 7.6809 19.4996C7.67029 19.5314 7.66499 19.5685 7.65438 19.6003C9.51584 22.0558 13.7426 23.7793 18.6746 23.7793C18.855 23.7793 19.0353 23.7687 19.2209 23.7634C23.2991 23.6521 26.8364 22.374 28.8676 20.4913C28.7138 19.9238 28.4539 19.4094 28.0986 18.9586C27.2978 17.9351 26.0621 17.2616 24.6621 17.2616C23.8825 17.2669 23.1506 17.4684 22.5195 17.8237C22.3074 17.9404 22.1059 18.0783 21.915 18.2268C21.6339 18.0093 21.3157 17.8396 20.971 17.7177C20.971 17.6858 20.9657 17.6593 20.9657 17.6275C20.9657 15.1456 22.9809 13.1303 25.4629 13.1303ZM20.1596 13.0136L20.0376 12.6371C19.9474 12.356 20.1012 12.0643 20.377 11.9689L20.7588 11.8522C21.0346 11.7568 21.3316 11.9159 21.4218 12.1969L21.5384 12.5682C21.6339 12.8439 21.4801 13.1462 21.199 13.2364L20.8225 13.3583C20.5467 13.4432 20.2497 13.2947 20.1596 13.0136ZM19.6345 17.6328C19.5073 17.898 19.1891 18.004 18.9239 17.8768L18.6693 17.7495L18.5686 17.7018C18.3034 17.5745 18.1973 17.2563 18.3246 17.0017L18.4943 16.6411C18.6269 16.3812 18.9398 16.2699 19.205 16.3971L19.5603 16.5721C19.8255 16.6994 19.9368 17.0123 19.8095 17.2775L19.677 17.5374L19.6345 17.6328Z" fill="#23B169"/>
<path d="M15.0429 16.01C15.8777 15.6409 16.2547 14.6645 15.8856 13.8298C15.5165 12.9951 14.5397 12.6175 13.7055 12.9871C12.8707 13.3562 12.4936 14.3325 12.8628 15.1673C13.2319 16.002 14.2077 16.3796 15.0429 16.01Z" fill="#FFD900"/>
<path d="M20.0381 12.6387L20.1594 13.0149C20.2492 13.2932 20.5476 13.446 20.8259 13.3562L21.2021 13.2349C21.4804 13.1451 21.6332 12.8467 21.5434 12.5684L21.4221 12.1922C21.3323 11.9139 21.0339 11.7611 20.7556 11.8509L20.3794 11.9722C20.1011 12.062 19.9483 12.3604 20.0381 12.6387Z" fill="#FFD900"/>
<path d="M18.9254 17.8773C19.1885 18.0046 19.5051 17.8959 19.6329 17.6323L19.6775 17.54L19.8053 17.2764C19.9325 17.0134 19.8233 16.6963 19.5603 16.569L19.2039 16.3961C18.9408 16.2688 18.6242 16.3775 18.4964 16.6411L18.3235 16.9975C18.1957 17.26 18.305 17.5771 18.5685 17.7049L18.6661 17.7527L18.9244 17.8784L18.9254 17.8773Z" fill="#FFD900"/>
<path d="M29.0284 20.3465C28.9785 20.3963 28.9223 20.443 28.8698 20.4913C26.837 22.3777 23.2992 23.6563 19.2215 23.7629C19.0385 23.7677 18.8577 23.7788 18.6731 23.7788C13.7421 23.7788 9.51539 22.0595 7.65606 19.6009C7.05678 18.8085 6.69987 17.9404 6.65002 17.0272C6.63782 16.9959 6.6304 16.9768 6.6304 16.9768L6.6304 20.0633C6.63093 26.7142 12.0223 32.1055 18.6726 32.1055C25.3229 32.1055 30.7148 26.7136 30.7148 20.0633V16.9768C30.7148 16.9768 30.7079 16.9964 30.6952 17.0272C30.6284 18.2374 30.0254 19.3675 29.0273 20.3465H29.0284Z" fill="#FFC450"/>
</svg>
